<svg width="1118" height="1036" viewBox="0 0 1118 1036" fill="none" xmlns="http://www.w3.org/2000/svg">
<path d="M648.438 838.334C661.158 830.375 665.018 813.611 657.059 800.891C649.1 788.17 632.336 784.311 619.616 792.27C606.896 800.229 603.036 816.992 610.995 829.713C618.954 842.433 635.718 846.293 648.438 838.334Z" fill="#454545"/>
<path d="M644.591 815.326C644.591 809.506 639.871 804.796 634.061 804.796C628.241 804.796 623.531 809.516 623.531 815.326C623.531 821.146 628.251 825.856 634.061 825.856C639.871 825.866 644.591 821.146 644.591 815.326Z" fill="#5E696B"/>
<path d="M415.057 825.608C420.752 811.725 414.114 795.854 400.23 790.16C386.347 784.465 370.476 791.103 364.782 804.986C359.087 818.87 365.725 834.74 379.608 840.435C393.492 846.13 409.362 839.492 415.057 825.608Z" fill="#454545"/>
<path d="M400.449 815.326C400.449 809.506 395.729 804.796 389.919 804.796C384.109 804.796 379.389 809.516 379.389 815.326C379.389 821.146 384.109 825.856 389.919 825.856C395.729 825.856 400.449 821.146 400.449 815.326Z" fill="#5E696B"/>
<path d="M266.614 841.801C281.231 838.408 290.33 823.809 286.937 809.192C283.544 794.575 268.945 785.476 254.328 788.869C239.711 792.261 230.612 806.861 234.004 821.478C237.397 836.095 251.997 845.194 266.614 841.801Z" fill="#454545"/>
<path d="M262.836 825.64C268.508 824.355 272.064 818.714 270.778 813.042C269.492 807.37 263.852 803.815 258.18 805.101C252.508 806.386 248.953 812.027 250.238 817.699C251.524 823.371 257.165 826.926 262.836 825.64Z" fill="#5E696B"/>
<path d="M370.83 194.477C370.83 194.477 378.77 175.197 387.84 172.927C396.91 170.657 528.45 169.527 535.26 171.797C542.06 174.067 545.5 194.097 545.5 194.097L370.83 194.477Z" fill="#B5B5B5"/>
<path d="M467.49 806.426H271.43C237.5 806.426 210 778.916 210 744.986V255.526C210 221.596 237.5 194.096 271.43 194.096H467.49C501.42 194.096 528.92 221.596 528.92 255.526V744.986C528.92 778.916 501.42 806.426 467.49 806.426Z" fill="#F38B19"/>
<path d="M331.76 806.426H346.5C341.41 806.426 336.47 805.786 331.76 804.596V806.426Z" fill="#E6743C"/>
<path d="M346.5 194.096H331.76V195.926C336.47 194.736 341.41 194.096 346.5 194.096Z" fill="#E6743C"/>
<path d="M271.799 746.466V254.056C271.799 220.946 298.639 194.096 331.759 194.096H313.329C280.219 194.096 253.369 220.936 253.369 254.056V746.466C253.369 779.576 280.209 806.426 313.329 806.426H331.759C298.639 806.426 271.799 779.576 271.799 746.466Z" fill="#8E8C85"/>
<path d="M545.5 194.096H512.33C545.44 194.096 572.29 220.936 572.29 254.056V746.466C572.29 779.576 545.45 806.426 512.33 806.426H545.5C578.61 806.426 605.46 779.586 605.46 746.466V254.056C605.46 220.936 578.62 194.096 545.5 194.096Z" fill="#E6743C"/>
<path d="M286.539 746.466V254.056C286.539 226.026 305.769 202.496 331.749 195.926V194.096C298.639 194.096 271.789 220.936 271.789 254.056V746.466C271.789 779.576 298.629 806.426 331.749 806.426V804.596C305.769 798.016 286.539 774.486 286.539 746.466Z" fill="#B5B5B5"/>
<path d="M607.81 806.426H411.76C377.83 806.426 350.33 778.926 350.33 744.996V255.526C350.33 221.596 377.83 194.096 411.76 194.096H607.82C641.75 194.096 669.25 221.596 669.25 255.526V744.986C669.24 778.916 641.74 806.426 607.81 806.426Z" fill="#FCA83D"/>
<path d="M428.061 192.446C428.061 192.446 438.381 220.426 445.081 242.226C451.331 262.546 482.881 263.246 536.701 263.246C594.071 263.246 619.601 259.026 622.151 243.716C624.701 228.406 617.271 214.416 607.501 193.666L428.061 192.446Z" fill="#65717E"/>
<path d="M450.039 200.996C452.479 211.986 457.659 224.506 462.589 232.366C469.369 243.176 500.729 245.226 541.679 245.126C577.489 245.036 608.019 242.576 608.019 232.366C608.019 222.156 594.089 202.216 594.089 202.216L450.039 200.996Z" fill="#454545"/>
<path d="M483.15 241.856L480.44 46.1162H462.58L464.57 234.686C468.18 237.966 474.58 240.266 483.15 241.856Z" fill="#E5E5E5"/>
<path d="M585.5 242.936L585.05 46.1162H567.19L566.74 244.546C573.62 244.206 579.96 243.686 585.5 242.936Z" fill="#E5E5E5"/>
<path d="M480.439 46.1162H462.579C462.579 46.1162 458.549 8.51616 468.759 3.40616C478.969 -1.69384 567.849 -1.48385 581.869 6.89615C588.459 10.8362 585.039 46.1162 585.039 46.1162H567.179L565.999 25.2062L480.569 23.5562L480.439 46.1162Z" fill="#454545"/>
<path d="M280.151 316.946H245.441C240.311 316.946 236.141 312.786 236.141 307.646V280.876C236.141 275.746 240.301 271.576 245.441 271.576H280.151C285.281 271.576 289.441 275.736 289.441 280.876V307.646C289.451 312.786 285.281 316.946 280.151 316.946Z" fill="#A3A3A3"/>
<path d="M280.151 718.386H245.441C240.311 718.386 236.141 714.226 236.141 709.096V682.326C236.141 677.196 240.301 673.036 245.441 673.036H280.151C285.281 673.036 289.441 677.196 289.441 682.326V709.096C289.451 714.216 285.281 718.386 280.151 718.386Z" fill="#A3A3A3"/>
<path d="M271.61 316.946H236.9C231.77 316.946 227.6 312.786 227.6 307.646V280.876C227.6 275.746 231.76 271.576 236.9 271.576H271.61C276.74 271.576 280.9 275.736 280.9 280.876V307.646C280.9 312.786 276.74 316.946 271.61 316.946Z" fill="#B5B5B5"/>
<path d="M271.61 718.386H236.9C231.77 718.386 227.6 714.226 227.6 709.096V682.326C227.6 677.196 231.76 673.036 236.9 673.036H271.61C276.74 673.036 280.9 677.196 280.9 682.326V709.096C280.9 714.216 276.74 718.386 271.61 718.386Z" fill="#B5B5B5"/>
<path d="M255.989 700.236H245.789C242.969 700.236 240.689 697.956 240.689 695.136C240.689 692.316 242.969 690.036 245.789 690.036H255.999C258.819 690.036 261.099 692.316 261.099 695.136C261.099 697.956 258.809 700.236 255.989 700.236Z" fill="#8E8C85"/>
<path d="M252.65 557.926V574.936C252.65 574.936 270.59 574.366 275.12 574.366C279.66 574.366 280.79 586.836 292.13 586.836C303.47 586.836 308.01 569.826 308.01 550.546C308.01 531.266 308.01 448.486 308.01 434.876C308.01 421.266 298.94 412.206 291 413.336C283.06 414.466 278.53 420.136 278.53 420.136H253.58V432.606C253.58 432.606 276.09 432.606 281.76 449.616C287.43 466.626 287.43 556.216 277.22 557.346C267.02 558.486 252.65 557.926 252.65 557.926Z" fill="#65717E"/>
<path d="M308.01 550.546C308.01 531.266 308.01 448.486 308.01 434.876C308.01 421.266 298.94 412.196 291 413.326C289.34 413.566 287.83 414.006 286.48 414.546C289.18 415.066 295.77 418.256 296.67 437.136C297.8 460.946 297.8 572.076 294.4 578.886C291.98 583.726 286.7 583.976 283.85 583.716C285.85 585.496 288.45 586.826 292.14 586.826C303.48 586.836 308.01 569.826 308.01 550.546Z" fill="#454545"/>
<path d="M399.45 746.736C393.67 746.736 388.98 742.046 388.98 736.266V304.746C388.98 298.966 393.67 294.276 399.45 294.276C405.23 294.276 409.92 298.966 409.92 304.746V736.266C409.92 742.046 405.23 746.736 399.45 746.736Z" fill="#F38B19"/>
<path d="M456.3 746.736C450.52 746.736 445.83 742.046 445.83 736.266V304.746C445.83 298.966 450.52 294.276 456.3 294.276C462.08 294.276 466.77 298.966 466.77 304.746V736.266C466.77 742.046 462.08 746.736 456.3 746.736Z" fill="#F38B19"/>
<path d="M513.15 746.736C507.37 746.736 502.68 742.046 502.68 736.266V304.746C502.68 298.966 507.37 294.276 513.15 294.276C518.93 294.276 523.62 298.966 523.62 304.746V736.266C523.62 742.046 518.93 746.736 513.15 746.736Z" fill="#F38B19"/>
<path d="M569.999 746.736C564.219 746.736 559.529 742.046 559.529 736.266V304.746C559.529 298.966 564.219 294.276 569.999 294.276C575.779 294.276 580.469 298.966 580.469 304.746V736.266C580.469 742.046 575.779 746.736 569.999 746.736Z" fill="#F38B19"/>
<path d="M626.851 746.736C621.071 746.736 616.381 742.046 616.381 736.266V304.746C616.381 298.966 621.071 294.276 626.851 294.276C632.631 294.276 637.321 298.966 637.321 304.746V736.266C637.321 742.046 632.631 746.736 626.851 746.736Z" fill="#F38B19"/>
<path d="M256.949 298.806H244.829C242.539 298.806 240.689 296.956 240.689 294.666V292.746C240.689 290.456 242.539 288.606 244.829 288.606H256.959C259.249 288.606 261.099 290.456 261.099 292.746V294.666C261.099 296.946 259.239 298.806 256.949 298.806Z" fill="#8E8C85"/>
<path d="M348.721 755.206C348.721 755.206 328.141 781.056 351.331 806.696L399.991 806.476L348.721 755.206Z" fill="#65717E"/>
<path d="M348.721 755.207C348.721 755.207 413.251 741.666 410.281 806.426C410.281 806.426 364.591 816.247 348.721 755.207Z" fill="#8E8C85"/>
<path d="M210.961 755.966C210.961 755.966 249.651 752.866 262.381 805.306C262.381 805.306 221.381 812.946 210.961 755.966Z" fill="#8E8C85"/>
<path d="M669.181 755.207C669.181 755.207 604.651 741.666 607.621 806.426C607.611 806.426 653.311 816.247 669.181 755.207Z" fill="#8E8C85"/>
<circle cx="66" cy="971" r="65" fill="#CC0000"/>
<path d="M43.3807 1003H34.517L60.1534 933.182H68.8807L94.517 1003H85.6534L64.7898 944.227H64.2443L43.3807 1003ZM46.6534 975.727H82.3807V983.227H46.6534V975.727Z" fill="white"/>
<circle cx="491" cy="971" r="65" fill="#CC0000"/>
<path d="M519.214 957H510.76C510.26 954.568 509.385 952.432 508.135 950.591C506.908 948.75 505.408 947.205 503.635 945.955C501.885 944.682 499.942 943.727 497.805 943.091C495.669 942.455 493.442 942.136 491.124 942.136C486.896 942.136 483.067 943.205 479.635 945.341C476.226 947.477 473.51 950.625 471.487 954.784C469.487 958.943 468.487 964.045 468.487 970.091C468.487 976.136 469.487 981.239 471.487 985.398C473.51 989.557 476.226 992.705 479.635 994.841C483.067 996.977 486.896 998.045 491.124 998.045C493.442 998.045 495.669 997.727 497.805 997.091C499.942 996.455 501.885 995.511 503.635 994.261C505.408 992.989 506.908 991.432 508.135 989.591C509.385 987.727 510.26 985.591 510.76 983.182H519.214C518.578 986.75 517.419 989.943 515.737 992.761C514.055 995.58 511.964 997.977 509.464 999.955C506.964 1001.91 504.158 1003.4 501.044 1004.42C497.953 1005.44 494.646 1005.95 491.124 1005.95C485.169 1005.95 479.874 1004.5 475.237 1001.59C470.601 998.682 466.953 994.545 464.294 989.182C461.635 983.818 460.305 977.455 460.305 970.091C460.305 962.727 461.635 956.364 464.294 951C466.953 945.636 470.601 941.5 475.237 938.591C479.874 935.682 485.169 934.227 491.124 934.227C494.646 934.227 497.953 934.739 501.044 935.761C504.158 936.784 506.964 938.284 509.464 940.261C511.964 942.216 514.055 944.602 515.737 947.42C517.419 950.216 518.578 953.409 519.214 957Z" fill="white"/>
<circle cx="278" cy="971" r="65" fill="#CC0000"/>
<path d="M255.736 1005V935.182H280.145C285.009 935.182 289.02 936.023 292.179 937.705C295.338 939.364 297.69 941.602 299.236 944.42C300.781 947.216 301.554 950.318 301.554 953.727C301.554 956.727 301.02 959.205 299.952 961.159C298.906 963.114 297.52 964.659 295.793 965.795C294.088 966.932 292.236 967.773 290.236 968.318V969C292.372 969.136 294.52 969.886 296.679 971.25C298.838 972.614 300.645 974.568 302.099 977.114C303.554 979.659 304.281 982.773 304.281 986.455C304.281 989.955 303.486 993.102 301.895 995.898C300.304 998.693 297.793 1000.91 294.361 1002.55C290.929 1004.18 286.463 1005 280.963 1005H255.736ZM264.19 997.5H280.963C286.486 997.5 290.406 996.432 292.724 994.295C295.065 992.136 296.236 989.523 296.236 986.455C296.236 984.091 295.634 981.909 294.429 979.909C293.224 977.886 291.509 976.273 289.281 975.068C287.054 973.841 284.418 973.227 281.372 973.227H264.19V997.5ZM264.19 965.864H279.872C282.418 965.864 284.713 965.364 286.759 964.364C288.827 963.364 290.463 961.955 291.668 960.136C292.895 958.318 293.509 956.182 293.509 953.727C293.509 950.659 292.44 948.057 290.304 945.92C288.168 943.761 284.781 942.682 280.145 942.682H264.19V965.864Z" fill="white"/>
<path d="M169.678 994.227V949.227H177.314V994.227H169.678ZM150.996 975.545V967.909H195.996V975.545H150.996Z" fill="black"/>
<path d="M596.933 965.318V957.955H638.933V965.318H596.933ZM596.933 985.5V978.136H638.933V985.5H596.933ZM700.601 952.455V999H690.76V961.795H690.487L679.828 968.477V959.75L691.351 952.455H700.601ZM729.527 999.636C727.133 999.621 724.822 999.22 722.595 998.432C720.383 997.644 718.398 996.364 716.641 994.591C714.883 992.818 713.489 990.47 712.459 987.545C711.444 984.621 710.936 981.03 710.936 976.773C710.951 972.864 711.398 969.371 712.277 966.295C713.171 963.205 714.444 960.583 716.095 958.432C717.762 956.28 719.754 954.644 722.072 953.523C724.391 952.386 726.989 951.818 729.868 951.818C732.974 951.818 735.716 952.424 738.095 953.636C740.474 954.833 742.383 956.462 743.822 958.523C745.277 960.583 746.156 962.894 746.459 965.455H736.754C736.375 963.833 735.58 962.561 734.368 961.636C733.156 960.712 731.656 960.25 729.868 960.25C726.838 960.25 724.535 961.568 722.959 964.205C721.398 966.841 720.603 970.424 720.572 974.955H720.891C721.588 973.576 722.527 972.402 723.709 971.432C724.906 970.447 726.262 969.697 727.777 969.182C729.307 968.652 730.921 968.386 732.618 968.386C735.375 968.386 737.83 969.038 739.982 970.341C742.133 971.629 743.83 973.402 745.072 975.659C746.315 977.917 746.936 980.5 746.936 983.409C746.936 986.561 746.201 989.364 744.732 991.818C743.277 994.273 741.239 996.197 738.618 997.591C736.012 998.97 732.982 999.652 729.527 999.636ZM729.482 991.909C730.997 991.909 732.353 991.545 733.55 990.818C734.747 990.091 735.686 989.106 736.368 987.864C737.05 986.621 737.391 985.227 737.391 983.682C737.391 982.136 737.05 980.75 736.368 979.523C735.701 978.295 734.777 977.318 733.595 976.591C732.413 975.864 731.065 975.5 729.55 975.5C728.413 975.5 727.36 975.712 726.391 976.136C725.436 976.561 724.595 977.152 723.868 977.909C723.156 978.667 722.595 979.545 722.186 980.545C721.777 981.53 721.572 982.583 721.572 983.705C721.572 985.205 721.913 986.576 722.595 987.818C723.292 989.061 724.232 990.053 725.413 990.795C726.61 991.538 727.966 991.909 729.482 991.909ZM772.163 1000.02C768.254 1000.01 764.891 999.045 762.072 997.136C759.269 995.227 757.11 992.462 755.595 988.841C754.095 985.22 753.353 980.864 753.368 975.773C753.368 970.697 754.118 966.371 755.618 962.795C757.133 959.22 759.292 956.5 762.095 954.636C764.913 952.758 768.269 951.818 772.163 951.818C776.057 951.818 779.406 952.758 782.209 954.636C785.027 956.515 787.194 959.242 788.709 962.818C790.224 966.379 790.974 970.697 790.959 975.773C790.959 980.879 790.201 985.242 788.686 988.864C787.186 992.485 785.035 995.25 782.232 997.159C779.429 999.068 776.072 1000.02 772.163 1000.02ZM772.163 991.864C774.83 991.864 776.959 990.523 778.55 987.841C780.141 985.159 780.929 981.136 780.913 975.773C780.913 972.242 780.55 969.303 779.822 966.955C779.11 964.606 778.095 962.841 776.777 961.659C775.474 960.477 773.936 959.886 772.163 959.886C769.512 959.886 767.391 961.212 765.8 963.864C764.209 966.515 763.406 970.485 763.391 975.773C763.391 979.348 763.747 982.333 764.459 984.727C765.186 987.106 766.209 988.894 767.527 990.091C768.845 991.273 770.391 991.864 772.163 991.864ZM813.839 999.682C810.264 999.682 807.188 998.924 804.612 997.409C802.052 995.879 800.082 993.758 798.703 991.045C797.339 988.333 796.658 985.212 796.658 981.682C796.658 978.106 797.347 974.97 798.726 972.273C800.12 969.561 802.097 967.447 804.658 965.932C807.218 964.402 810.264 963.636 813.794 963.636C816.839 963.636 819.506 964.189 821.794 965.295C824.082 966.402 825.893 967.955 827.226 969.955C828.559 971.955 829.294 974.303 829.43 977H820.294C820.036 975.258 819.355 973.856 818.249 972.795C817.158 971.72 815.726 971.182 813.953 971.182C812.453 971.182 811.143 971.591 810.021 972.409C808.915 973.212 808.052 974.386 807.43 975.932C806.809 977.477 806.499 979.348 806.499 981.545C806.499 983.773 806.802 985.667 807.408 987.227C808.029 988.788 808.9 989.977 810.021 990.795C811.143 991.614 812.453 992.023 813.953 992.023C815.059 992.023 816.052 991.795 816.93 991.341C817.824 990.886 818.559 990.227 819.135 989.364C819.726 988.485 820.112 987.432 820.294 986.205H829.43C829.279 988.871 828.552 991.22 827.249 993.25C825.961 995.265 824.18 996.841 821.908 997.977C819.635 999.114 816.946 999.682 813.839 999.682ZM835.629 999V964.091H844.857V970.25H845.266C845.993 968.205 847.205 966.591 848.902 965.409C850.599 964.227 852.629 963.636 854.993 963.636C857.387 963.636 859.425 964.235 861.107 965.432C862.788 966.614 863.91 968.22 864.47 970.25H864.834C865.546 968.25 866.834 966.652 868.697 965.455C870.576 964.242 872.796 963.636 875.357 963.636C878.614 963.636 881.258 964.674 883.288 966.75C885.334 968.811 886.357 971.735 886.357 975.523V999H876.697V977.432C876.697 975.492 876.182 974.038 875.152 973.068C874.122 972.098 872.834 971.614 871.288 971.614C869.531 971.614 868.16 972.174 867.175 973.295C866.19 974.402 865.697 975.864 865.697 977.682V999H856.311V977.227C856.311 975.515 855.819 974.152 854.834 973.136C853.864 972.121 852.584 971.614 850.993 971.614C849.917 971.614 848.947 971.886 848.084 972.432C847.235 972.962 846.561 973.712 846.061 974.682C845.561 975.636 845.311 976.758 845.311 978.045V999H835.629ZM948.217 945.304H956.729V1004.76H948.217V945.304ZM924.793 949.464C927.822 949.464 930.51 950.339 932.857 952.088C935.204 953.795 937.038 956.248 938.361 959.448C939.726 962.605 940.409 966.339 940.409 970.648C940.409 975 939.726 978.776 938.361 981.976C937.038 985.133 935.204 987.587 932.857 989.336C930.51 991.043 927.822 991.896 924.793 991.896C921.806 991.896 919.14 991.043 916.793 989.336C914.446 987.587 912.59 985.133 911.225 981.976C909.902 978.776 909.241 975 909.241 970.648C909.241 966.339 909.902 962.605 911.225 959.448C912.59 956.248 914.446 953.795 916.793 952.088C919.14 950.339 921.806 949.464 924.793 949.464ZM924.793 957.208C923.342 957.208 922.062 957.72 920.953 958.744C919.844 959.768 918.969 961.283 918.329 963.288C917.732 965.251 917.433 967.704 917.433 970.648C917.433 973.549 917.732 976.024 918.329 978.072C918.969 980.077 919.844 981.592 920.953 982.616C922.062 983.64 923.342 984.152 924.793 984.152C926.286 984.152 927.588 983.64 928.697 982.616C929.806 981.592 930.66 980.077 931.257 978.072C931.897 976.024 932.217 973.549 932.217 970.648C932.217 967.704 931.897 965.251 931.257 963.288C930.66 961.283 929.806 959.768 928.697 958.744C927.588 957.72 926.286 957.208 924.793 957.208ZM1004.4 945.432H1012.92V1004.7H1004.4V945.432ZM1011 968.536H1021.43V975.576H1011V968.536ZM966.132 954.136H1000.69V960.92H966.132V954.136ZM983.54 964.312C986.399 964.312 988.959 964.931 991.22 966.168C993.481 967.363 995.252 969.005 996.532 971.096C997.855 973.187 998.516 975.619 998.516 978.392C998.516 981.165 997.855 983.619 996.532 985.752C995.252 987.843 993.481 989.507 991.22 990.744C989.001 991.939 986.441 992.536 983.54 992.536C980.681 992.536 978.1 991.939 975.796 990.744C973.535 989.507 971.743 987.843 970.42 985.752C969.14 983.619 968.5 981.165 968.5 978.392C968.5 975.619 969.14 973.187 970.42 971.096C971.743 969.005 973.535 967.363 975.796 966.168C978.1 964.931 980.681 964.312 983.54 964.312ZM983.54 971.224C982.175 971.224 980.98 971.501 979.956 972.056C978.932 972.611 978.121 973.421 977.524 974.488C976.927 975.555 976.628 976.856 976.628 978.392C976.628 979.885 976.927 981.187 977.524 982.296C978.121 983.363 978.932 984.195 979.956 984.792C980.98 985.347 982.175 985.624 983.54 985.624C984.863 985.624 986.036 985.347 987.06 984.792C988.084 984.195 988.895 983.363 989.492 982.296C990.089 981.187 990.388 979.885 990.388 978.392C990.388 976.856 990.089 975.555 989.492 974.488C988.895 973.421 988.084 972.611 987.06 972.056C986.036 971.501 984.863 971.224 983.54 971.224ZM979.188 946.392H987.764V956.76H979.188V946.392Z" fill="black"/>
<path d="M169.678 994.227V949.227H177.314V994.227H169.678ZM150.996 975.545V967.909H195.996V975.545H150.996Z" fill="black"/>
<path d="M378.678 994.227V949.227H386.314V994.227H378.678ZM359.996 975.545V967.909H404.996V975.545H359.996Z" fill="black"/>
<ellipse cx="109.657" cy="126" rx="44.6572" ry="45" fill="#CC0000"/>
<path d="M95.2349 147H89.3258L106.417 100.455H112.235L129.326 147H123.417L109.508 107.818H109.144L95.2349 147ZM97.4167 128.818H121.235V133.818H97.4167V128.818Z" fill="white"/>
<path d="M109.676 204.499L95.2426 229.499L124.11 229.499L109.676 204.499ZM107.909 810.766C108.885 811.743 110.468 811.743 111.444 810.766L127.354 794.856C128.33 793.88 128.33 792.297 127.354 791.321C126.378 790.345 124.795 790.345 123.818 791.321L109.676 805.463L95.5342 791.321C94.5579 790.345 92.975 790.345 91.9986 791.321C91.0223 792.297 91.0223 793.88 91.9986 794.856L107.909 810.766ZM107.176 210.465L107.176 214.442L112.176 214.442L112.176 210.465L107.176 210.465ZM107.176 218.419L107.176 222.396L112.176 222.396L112.176 218.419L107.176 218.419ZM107.176 226.373L107.176 230.35L112.176 230.35L112.176 226.373L107.176 226.373ZM107.176 234.327L107.176 238.304L112.176 238.304L112.176 234.327L107.176 234.327ZM107.176 242.281L107.176 246.258L112.176 246.258L112.176 242.281L107.176 242.281ZM107.176 250.235L107.176 254.212L112.176 254.212L112.176 250.235L107.176 250.235ZM107.176 258.189L107.176 262.166L112.176 262.166L112.176 258.189L107.176 258.189ZM107.176 266.142L107.176 270.119L112.176 270.119L112.176 266.142L107.176 266.142ZM107.176 274.096L107.176 278.073L112.176 278.073L112.176 274.096L107.176 274.096ZM107.176 282.05L107.176 286.027L112.176 286.027L112.176 282.05L107.176 282.05ZM107.176 290.004L107.176 293.981L112.176 293.981L112.176 290.004L107.176 290.004ZM107.176 297.958L107.176 301.935L112.176 301.935L112.176 297.958L107.176 297.958ZM107.176 305.912L107.176 309.889L112.176 309.889L112.176 305.912L107.176 305.912ZM107.176 313.866L107.176 317.843L112.176 317.843L112.176 313.866L107.176 313.866ZM107.176 321.82L107.176 325.797L112.176 325.797L112.176 321.82L107.176 321.82ZM107.176 329.774L107.176 333.751L112.176 333.751L112.176 329.774L107.176 329.774ZM107.176 337.728L107.176 341.705L112.176 341.705L112.176 337.728L107.176 337.728ZM107.176 345.682L107.176 349.659L112.176 349.659L112.176 345.682L107.176 345.682ZM107.176 353.636L107.176 357.613L112.176 357.613L112.176 353.636L107.176 353.636ZM107.176 361.59L107.176 365.567L112.176 365.567L112.176 361.59L107.176 361.59ZM107.176 369.544L107.176 373.521L112.176 373.521L112.176 369.544L107.176 369.544ZM107.176 377.498L107.176 381.475L112.176 381.475L112.176 377.498L107.176 377.498ZM107.176 385.452L107.176 389.429L112.176 389.429L112.176 385.452L107.176 385.452ZM107.176 393.406L107.176 397.383L112.176 397.383L112.176 393.406L107.176 393.406ZM107.176 401.359L107.176 405.336L112.176 405.336L112.176 401.359L107.176 401.359ZM107.176 409.313L107.176 413.29L112.176 413.29L112.176 409.313L107.176 409.313ZM107.176 417.267L107.176 421.244L112.176 421.244L112.176 417.267L107.176 417.267ZM107.176 425.221L107.176 429.198L112.176 429.198L112.176 425.221L107.176 425.221ZM107.176 433.175L107.176 437.152L112.176 437.152L112.176 433.175L107.176 433.175ZM107.176 441.129L107.176 445.106L112.176 445.106L112.176 441.129L107.176 441.129ZM107.176 449.083L107.176 453.06L112.176 453.06L112.176 449.083L107.176 449.083ZM107.176 457.037L107.176 461.014L112.176 461.014L112.176 457.037L107.176 457.037ZM107.176 464.991L107.176 468.968L112.176 468.968L112.176 464.991L107.176 464.991ZM107.176 472.945L107.176 476.922L112.176 476.922L112.176 472.945L107.176 472.945ZM107.176 480.899L107.176 484.876L112.176 484.876L112.176 480.899L107.176 480.899ZM107.176 488.853L107.176 492.83L112.176 492.83L112.176 488.853L107.176 488.853ZM107.176 496.807L107.176 500.784L112.176 500.784L112.176 496.807L107.176 496.807ZM107.176 504.761L107.176 508.738L112.176 508.738L112.176 504.761L107.176 504.761ZM107.176 512.715L107.176 516.692L112.176 516.692L112.176 512.715L107.176 512.715ZM107.176 520.669L107.176 524.645L112.176 524.645L112.176 520.669L107.176 520.669ZM107.176 528.622L107.176 532.599L112.176 532.599L112.176 528.622L107.176 528.622ZM107.176 536.576L107.176 540.553L112.176 540.553L112.176 536.576L107.176 536.576ZM107.176 544.53L107.176 548.507L112.176 548.507L112.176 544.53L107.176 544.53ZM107.176 552.484L107.176 556.461L112.176 556.461L112.176 552.484L107.176 552.484ZM107.176 560.438L107.176 564.415L112.176 564.415L112.176 560.438L107.176 560.438ZM107.176 568.392L107.176 572.369L112.176 572.369L112.176 568.392L107.176 568.392ZM107.176 576.346L107.176 580.323L112.176 580.323L112.176 576.346L107.176 576.346ZM107.176 584.3L107.176 588.277L112.176 588.277L112.176 584.3L107.176 584.3ZM107.176 592.254L107.176 596.231L112.176 596.231L112.176 592.254L107.176 592.254ZM107.176 600.208L107.176 604.185L112.176 604.185L112.176 600.208L107.176 600.208ZM107.176 608.162L107.176 612.139L112.176 612.139L112.176 608.162L107.176 608.162ZM107.176 616.116L107.176 620.092L112.176 620.092L112.176 616.116L107.176 616.116ZM107.176 624.069L107.176 628.046L112.176 628.046L112.176 624.069L107.176 624.069ZM107.176 632.023L107.176 636L112.176 636L112.176 632.023L107.176 632.023ZM107.176 639.977L107.176 643.954L112.176 643.954L112.176 639.977L107.176 639.977ZM107.176 647.931L107.176 651.908L112.176 651.908L112.176 647.931L107.176 647.931ZM107.176 655.885L107.176 659.862L112.176 659.862L112.176 655.885L107.176 655.885ZM107.176 663.839L107.176 667.816L112.176 667.816L112.176 663.839L107.176 663.839ZM107.176 671.793L107.176 675.77L112.176 675.77L112.176 671.793L107.176 671.793ZM107.176 679.747L107.176 683.724L112.176 683.724L112.176 679.747L107.176 679.747ZM107.176 687.701L107.176 691.678L112.176 691.678L112.176 687.701L107.176 687.701ZM107.176 695.655L107.176 699.632L112.176 699.632L112.176 695.655L107.176 695.655ZM107.176 703.609L107.176 707.586L112.176 707.586L112.176 703.609L107.176 703.609ZM107.176 711.563L107.176 715.54L112.176 715.54L112.176 711.563L107.176 711.563ZM107.176 719.516L107.176 723.493L112.176 723.493L112.176 719.516L107.176 719.516ZM107.176 727.47L107.176 731.447L112.176 731.447L112.176 727.47L107.176 727.47ZM107.176 735.424L107.176 739.401L112.176 739.401L112.176 735.424L107.176 735.424ZM107.176 743.378L107.176 747.355L112.176 747.355L112.176 743.378L107.176 743.378ZM107.176 751.332L107.176 755.309L112.176 755.309L112.176 751.332L107.176 751.332ZM107.176 759.286L107.176 763.263L112.176 763.263L112.176 759.286L107.176 759.286ZM107.176 767.24L107.176 771.217L112.176 771.217L112.176 767.24L107.176 767.24ZM107.176 775.194L107.176 779.171L112.176 779.171L112.176 775.194L107.176 775.194ZM107.176 783.148L107.176 787.125L112.176 787.125L112.176 783.148L107.176 783.148ZM107.176 791.102L107.176 795.079L112.176 795.079L112.176 791.102L107.176 791.102ZM107.176 799.056L107.176 803.033L112.176 803.033L112.176 799.056L107.176 799.056ZM107.176 807.01L107.176 808.999L112.176 808.999L112.176 807.01L107.176 807.01ZM109.676 204.499L95.2426 229.499L124.11 229.499L109.676 204.499ZM107.909 810.766C108.885 811.743 110.468 811.743 111.444 810.766L127.354 794.856C128.33 793.88 128.33 792.297 127.354 791.321C126.378 790.345 124.795 790.345 123.818 791.321L109.676 805.463L95.5342 791.321C94.5579 790.345 92.975 790.345 91.9986 791.321C91.0223 792.297 91.0223 793.88 91.9986 794.856L107.909 810.766ZM107.176 210.465L107.176 214.442L112.176 214.442L112.176 210.465L107.176 210.465ZM107.176 218.419L107.176 222.396L112.176 222.396L112.176 218.419L107.176 218.419ZM107.176 226.373L107.176 230.35L112.176 230.35L112.176 226.373L107.176 226.373ZM107.176 234.327L107.176 238.304L112.176 238.304L112.176 234.327L107.176 234.327ZM107.176 242.281L107.176 246.258L112.176 246.258L112.176 242.281L107.176 242.281ZM107.176 250.235L107.176 254.212L112.176 254.212L112.176 250.235L107.176 250.235ZM107.176 258.189L107.176 262.166L112.176 262.166L112.176 258.189L107.176 258.189ZM107.176 266.142L107.176 270.119L112.176 270.119L112.176 266.142L107.176 266.142ZM107.176 274.096L107.176 278.073L112.176 278.073L112.176 274.096L107.176 274.096ZM107.176 282.05L107.176 286.027L112.176 286.027L112.176 282.05L107.176 282.05ZM107.176 290.004L107.176 293.981L112.176 293.981L112.176 290.004L107.176 290.004ZM107.176 297.958L107.176 301.935L112.176 301.935L112.176 297.958L107.176 297.958ZM107.176 305.912L107.176 309.889L112.176 309.889L112.176 305.912L107.176 305.912ZM107.176 313.866L107.176 317.843L112.176 317.843L112.176 313.866L107.176 313.866ZM107.176 321.82L107.176 325.797L112.176 325.797L112.176 321.82L107.176 321.82ZM107.176 329.774L107.176 333.751L112.176 333.751L112.176 329.774L107.176 329.774ZM107.176 337.728L107.176 341.705L112.176 341.705L112.176 337.728L107.176 337.728ZM107.176 345.682L107.176 349.659L112.176 349.659L112.176 345.682L107.176 345.682ZM107.176 353.636L107.176 357.613L112.176 357.613L112.176 353.636L107.176 353.636ZM107.176 361.59L107.176 365.567L112.176 365.567L112.176 361.59L107.176 361.59ZM107.176 369.544L107.176 373.521L112.176 373.521L112.176 369.544L107.176 369.544ZM107.176 377.498L107.176 381.475L112.176 381.475L112.176 377.498L107.176 377.498ZM107.176 385.452L107.176 389.429L112.176 389.429L112.176 385.452L107.176 385.452ZM107.176 393.406L107.176 397.383L112.176 397.383L112.176 393.406L107.176 393.406ZM107.176 401.359L107.176 405.336L112.176 405.336L112.176 401.359L107.176 401.359ZM107.176 409.313L107.176 413.29L112.176 413.29L112.176 409.313L107.176 409.313ZM107.176 417.267L107.176 421.244L112.176 421.244L112.176 417.267L107.176 417.267ZM107.176 425.221L107.176 429.198L112.176 429.198L112.176 425.221L107.176 425.221ZM107.176 433.175L107.176 437.152L112.176 437.152L112.176 433.175L107.176 433.175ZM107.176 441.129L107.176 445.106L112.176 445.106L112.176 441.129L107.176 441.129ZM107.176 449.083L107.176 453.06L112.176 453.06L112.176 449.083L107.176 449.083ZM107.176 457.037L107.176 461.014L112.176 461.014L112.176 457.037L107.176 457.037ZM107.176 464.991L107.176 468.968L112.176 468.968L112.176 464.991L107.176 464.991ZM107.176 472.945L107.176 476.922L112.176 476.922L112.176 472.945L107.176 472.945ZM107.176 480.899L107.176 484.876L112.176 484.876L112.176 480.899L107.176 480.899ZM107.176 488.853L107.176 492.83L112.176 492.83L112.176 488.853L107.176 488.853ZM107.176 496.807L107.176 500.784L112.176 500.784L112.176 496.807L107.176 496.807ZM107.176 504.761L107.176 508.738L112.176 508.738L112.176 504.761L107.176 504.761ZM107.176 512.715L107.176 516.692L112.176 516.692L112.176 512.715L107.176 512.715ZM107.176 520.669L107.176 524.645L112.176 524.645L112.176 520.669L107.176 520.669ZM107.176 528.622L107.176 532.599L112.176 532.599L112.176 528.622L107.176 528.622ZM107.176 536.576L107.176 540.553L112.176 540.553L112.176 536.576L107.176 536.576ZM107.176 544.53L107.176 548.507L112.176 548.507L112.176 544.53L107.176 544.53ZM107.176 552.484L107.176 556.461L112.176 556.461L112.176 552.484L107.176 552.484ZM107.176 560.438L107.176 564.415L112.176 564.415L112.176 560.438L107.176 560.438ZM107.176 568.392L107.176 572.369L112.176 572.369L112.176 568.392L107.176 568.392ZM107.176 576.346L107.176 580.323L112.176 580.323L112.176 576.346L107.176 576.346ZM107.176 584.3L107.176 588.277L112.176 588.277L112.176 584.3L107.176 584.3ZM107.176 592.254L107.176 596.231L112.176 596.231L112.176 592.254L107.176 592.254ZM107.176 600.208L107.176 604.185L112.176 604.185L112.176 600.208L107.176 600.208ZM107.176 608.162L107.176 612.139L112.176 612.139L112.176 608.162L107.176 608.162ZM107.176 616.116L107.176 620.092L112.176 620.092L112.176 616.116L107.176 616.116ZM107.176 624.069L107.176 628.046L112.176 628.046L112.176 624.069L107.176 624.069ZM107.176 632.023L107.176 636L112.176 636L112.176 632.023L107.176 632.023ZM107.176 639.977L107.176 643.954L112.176 643.954L112.176 639.977L107.176 639.977ZM107.176 647.931L107.176 651.908L112.176 651.908L112.176 647.931L107.176 647.931ZM107.176 655.885L107.176 659.862L112.176 659.862L112.176 655.885L107.176 655.885ZM107.176 663.839L107.176 667.816L112.176 667.816L112.176 663.839L107.176 663.839ZM107.176 671.793L107.176 675.77L112.176 675.77L112.176 671.793L107.176 671.793ZM107.176 679.747L107.176 683.724L112.176 683.724L112.176 679.747L107.176 679.747ZM107.176 687.701L107.176 691.678L112.176 691.678L112.176 687.701L107.176 687.701ZM107.176 695.655L107.176 699.632L112.176 699.632L112.176 695.655L107.176 695.655ZM107.176 703.609L107.176 707.586L112.176 707.586L112.176 703.609L107.176 703.609ZM107.176 711.563L107.176 715.54L112.176 715.54L112.176 711.563L107.176 711.563ZM107.176 719.516L107.176 723.493L112.176 723.493L112.176 719.516L107.176 719.516ZM107.176 727.47L107.176 731.447L112.176 731.447L112.176 727.47L107.176 727.47ZM107.176 735.424L107.176 739.401L112.176 739.401L112.176 735.424L107.176 735.424ZM107.176 743.378L107.176 747.355L112.176 747.355L112.176 743.378L107.176 743.378ZM107.176 751.332L107.176 755.309L112.176 755.309L112.176 751.332L107.176 751.332ZM107.176 759.286L107.176 763.263L112.176 763.263L112.176 759.286L107.176 759.286ZM107.176 767.24L107.176 771.217L112.176 771.217L112.176 767.24L107.176 767.24ZM107.176 775.194L107.176 779.171L112.176 779.171L112.176 775.194L107.176 775.194ZM107.176 783.148L107.176 787.125L112.176 787.125L112.176 783.148L107.176 783.148ZM107.176 791.102L107.176 795.079L112.176 795.079L112.176 791.102L107.176 791.102ZM107.176 799.056L107.176 803.033L112.176 803.033L112.176 799.056L107.176 799.056ZM107.176 807.01L107.176 808.999L112.176 808.999L112.176 807.01L107.176 807.01Z" fill="#CC0000"/>
<path d="M667 716.393L642 730.827L642 701.959L667 716.393ZM310.734 718.161C309.757 717.184 309.757 715.601 310.734 714.625L326.643 698.715C327.62 697.739 329.203 697.739 330.179 698.715C331.155 699.691 331.155 701.274 330.179 702.251L316.037 716.393L330.179 730.535C331.155 731.511 331.155 733.094 330.179 734.07C329.203 735.047 327.62 735.047 326.643 734.07L310.734 718.161ZM290.499 716.393L265.499 730.827L265.499 701.959L290.499 716.393ZM194.233 718.161C193.256 717.184 193.256 715.601 194.233 714.625L210.143 698.715C211.119 697.739 212.702 697.739 213.678 698.715C214.654 699.691 214.654 701.274 213.678 702.251L199.536 716.393L213.678 730.535C214.654 731.511 214.654 733.094 213.678 734.071C212.702 735.047 211.119 735.047 210.143 734.071L194.233 718.161ZM660.957 718.893L656.929 718.893L656.929 713.893L660.957 713.893L660.957 718.893ZM652.901 718.893L648.872 718.893L648.872 713.893L652.901 713.893L652.901 718.893ZM644.844 718.893L640.815 718.893L640.815 713.893L644.844 713.893L644.844 718.893ZM636.787 718.893L632.759 718.893L632.759 713.893L636.787 713.893L636.787 718.893ZM628.73 718.893L624.702 718.893L624.702 713.893L628.73 713.893L628.73 718.893ZM620.673 718.893L616.645 718.893L616.645 713.893L620.673 713.893L620.673 718.893ZM612.617 718.893L608.588 718.893L608.588 713.893L612.617 713.893L612.617 718.893ZM604.56 718.893L600.531 718.893L600.531 713.893L604.56 713.893L604.56 718.893ZM596.503 718.893L592.475 718.893L592.475 713.893L596.503 713.893L596.503 718.893ZM588.446 718.893L584.418 718.893L584.418 713.893L588.446 713.893L588.446 718.893ZM580.39 718.893L576.361 718.893L576.361 713.893L580.39 713.893L580.39 718.893ZM572.333 718.893L568.304 718.893L568.304 713.893L572.333 713.893L572.333 718.893ZM564.276 718.893L560.248 718.893L560.248 713.893L564.276 713.893L564.276 718.893ZM556.219 718.893L552.191 718.893L552.191 713.893L556.219 713.893L556.219 718.893ZM548.162 718.893L544.134 718.893L544.134 713.893L548.162 713.893L548.162 718.893ZM540.106 718.893L536.077 718.893L536.077 713.893L540.106 713.893L540.106 718.893ZM532.049 718.893L528.02 718.893L528.02 713.893L532.049 713.893L532.049 718.893ZM523.992 718.893L519.964 718.893L519.964 713.893L523.992 713.893L523.992 718.893ZM515.935 718.893L511.907 718.893L511.907 713.893L515.935 713.893L515.935 718.893ZM507.878 718.893L503.85 718.893L503.85 713.893L507.878 713.893L507.878 718.893ZM499.822 718.893L495.793 718.893L495.793 713.893L499.822 713.893L499.822 718.893ZM491.765 718.893L487.736 718.893L487.736 713.893L491.765 713.893L491.765 718.893ZM483.708 718.893L479.68 718.893L479.68 713.893L483.708 713.893L483.708 718.893ZM475.651 718.893L471.623 718.893L471.623 713.893L475.651 713.893L475.651 718.893ZM467.594 718.893L463.566 718.893L463.566 713.893L467.594 713.893L467.594 718.893ZM459.538 718.893L455.509 718.893L455.509 713.893L459.538 713.893L459.538 718.893ZM451.481 718.893L447.452 718.893L447.452 713.893L451.481 713.893L451.481 718.893ZM443.424 718.893L439.396 718.893L439.396 713.893L443.424 713.893L443.424 718.893ZM435.367 718.893L431.339 718.893L431.339 713.893L435.367 713.893L435.367 718.893ZM427.31 718.893L423.282 718.893L423.282 713.893L427.31 713.893L427.31 718.893ZM419.254 718.893L415.225 718.893L415.225 713.893L419.254 713.893L419.254 718.893ZM411.197 718.893L407.168 718.893L407.168 713.893L411.197 713.893L411.197 718.893ZM403.14 718.893L399.112 718.893L399.112 713.893L403.14 713.893L403.14 718.893ZM395.083 718.893L391.055 718.893L391.055 713.893L395.083 713.893L395.083 718.893ZM387.027 718.893L382.998 718.893L382.998 713.893L387.027 713.893L387.027 718.893ZM378.97 718.893L374.941 718.893L374.941 713.893L378.97 713.893L378.97 718.893ZM370.913 718.893L366.885 718.893L366.885 713.893L370.913 713.893L370.913 718.893ZM362.856 718.893L358.828 718.893L358.828 713.893L362.856 713.893L362.856 718.893ZM354.8 718.893L350.771 718.893L350.771 713.893L354.8 713.893L354.8 718.893ZM346.743 718.893L342.714 718.893L342.714 713.893L346.743 713.893L346.743 718.893ZM338.686 718.893L334.658 718.893L334.658 713.893L338.686 713.893L338.686 718.893ZM330.629 718.893L326.601 718.893L326.601 713.893L330.629 713.893L330.629 718.893ZM322.572 718.893L318.544 718.893L318.544 713.893L322.572 713.893L322.572 718.893ZM314.516 718.893L312.501 718.893L312.501 713.893L314.516 713.893L314.516 718.893ZM284.593 718.893L280.656 718.893L280.656 713.893L284.593 713.893L284.593 718.893ZM276.718 718.893L272.781 718.893L272.781 713.893L276.718 713.893L276.718 718.893ZM268.843 718.893L264.906 718.893L264.906 713.893L268.843 713.893L268.843 718.893ZM260.968 718.893L257.031 718.893L257.031 713.893L260.968 713.893L260.968 718.893ZM253.093 718.893L249.156 718.893L249.156 713.893L253.093 713.893L253.093 718.893ZM245.219 718.893L241.281 718.893L241.281 713.893L245.219 713.893L245.219 718.893ZM237.344 718.893L233.406 718.893L233.406 713.893L237.344 713.893L237.344 718.893ZM229.469 718.893L225.531 718.893L225.531 713.893L229.469 713.893L229.469 718.893ZM221.594 718.893L217.656 718.893L217.656 713.893L221.594 713.893L221.594 718.893ZM213.719 718.893L209.782 718.893L209.782 713.893L213.719 713.893L213.719 718.893ZM205.844 718.893L201.907 718.893L201.907 713.893L205.844 713.893L205.844 718.893ZM197.969 718.893L196 718.893L196 713.893L197.969 713.893L197.969 718.893ZM667 716.393L642 730.827L642 701.959L667 716.393ZM310.734 718.161C309.757 717.184 309.757 715.601 310.734 714.625L326.643 698.715C327.62 697.739 329.203 697.739 330.179 698.715C331.155 699.691 331.155 701.274 330.179 702.251L316.037 716.393L330.179 730.535C331.155 731.511 331.155 733.094 330.179 734.07C329.203 735.047 327.62 735.047 326.643 734.07L310.734 718.161ZM290.499 716.393L265.499 730.827L265.499 701.959L290.499 716.393ZM194.233 718.161C193.256 717.184 193.256 715.601 194.233 714.625L210.143 698.715C211.119 697.739 212.702 697.739 213.678 698.715C214.654 699.691 214.654 701.274 213.678 702.251L199.536 716.393L213.678 730.535C214.654 731.511 214.654 733.094 213.678 734.071C212.702 735.047 211.119 735.047 210.143 734.071L194.233 718.161ZM660.957 718.893L656.929 718.893L656.929 713.893L660.957 713.893L660.957 718.893ZM652.901 718.893L648.872 718.893L648.872 713.893L652.901 713.893L652.901 718.893ZM644.844 718.893L640.815 718.893L640.815 713.893L644.844 713.893L644.844 718.893ZM636.787 718.893L632.759 718.893L632.759 713.893L636.787 713.893L636.787 718.893ZM628.73 718.893L624.702 718.893L624.702 713.893L628.73 713.893L628.73 718.893ZM620.673 718.893L616.645 718.893L616.645 713.893L620.673 713.893L620.673 718.893ZM612.617 718.893L608.588 718.893L608.588 713.893L612.617 713.893L612.617 718.893ZM604.56 718.893L600.531 718.893L600.531 713.893L604.56 713.893L604.56 718.893ZM596.503 718.893L592.475 718.893L592.475 713.893L596.503 713.893L596.503 718.893ZM588.446 718.893L584.418 718.893L584.418 713.893L588.446 713.893L588.446 718.893ZM580.39 718.893L576.361 718.893L576.361 713.893L580.39 713.893L580.39 718.893ZM572.333 718.893L568.304 718.893L568.304 713.893L572.333 713.893L572.333 718.893ZM564.276 718.893L560.248 718.893L560.248 713.893L564.276 713.893L564.276 718.893ZM556.219 718.893L552.191 718.893L552.191 713.893L556.219 713.893L556.219 718.893ZM548.162 718.893L544.134 718.893L544.134 713.893L548.162 713.893L548.162 718.893ZM540.106 718.893L536.077 718.893L536.077 713.893L540.106 713.893L540.106 718.893ZM532.049 718.893L528.02 718.893L528.02 713.893L532.049 713.893L532.049 718.893ZM523.992 718.893L519.964 718.893L519.964 713.893L523.992 713.893L523.992 718.893ZM515.935 718.893L511.907 718.893L511.907 713.893L515.935 713.893L515.935 718.893ZM507.878 718.893L503.85 718.893L503.85 713.893L507.878 713.893L507.878 718.893ZM499.822 718.893L495.793 718.893L495.793 713.893L499.822 713.893L499.822 718.893ZM491.765 718.893L487.736 718.893L487.736 713.893L491.765 713.893L491.765 718.893ZM483.708 718.893L479.68 718.893L479.68 713.893L483.708 713.893L483.708 718.893ZM475.651 718.893L471.623 718.893L471.623 713.893L475.651 713.893L475.651 718.893ZM467.594 718.893L463.566 718.893L463.566 713.893L467.594 713.893L467.594 718.893ZM459.538 718.893L455.509 718.893L455.509 713.893L459.538 713.893L459.538 718.893ZM451.481 718.893L447.452 718.893L447.452 713.893L451.481 713.893L451.481 718.893ZM443.424 718.893L439.396 718.893L439.396 713.893L443.424 713.893L443.424 718.893ZM435.367 718.893L431.339 718.893L431.339 713.893L435.367 713.893L435.367 718.893ZM427.31 718.893L423.282 718.893L423.282 713.893L427.31 713.893L427.31 718.893ZM419.254 718.893L415.225 718.893L415.225 713.893L419.254 713.893L419.254 718.893ZM411.197 718.893L407.168 718.893L407.168 713.893L411.197 713.893L411.197 718.893ZM403.14 718.893L399.112 718.893L399.112 713.893L403.14 713.893L403.14 718.893ZM395.083 718.893L391.055 718.893L391.055 713.893L395.083 713.893L395.083 718.893ZM387.027 718.893L382.998 718.893L382.998 713.893L387.027 713.893L387.027 718.893ZM378.97 718.893L374.941 718.893L374.941 713.893L378.97 713.893L378.97 718.893ZM370.913 718.893L366.885 718.893L366.885 713.893L370.913 713.893L370.913 718.893ZM362.856 718.893L358.828 718.893L358.828 713.893L362.856 713.893L362.856 718.893ZM354.8 718.893L350.771 718.893L350.771 713.893L354.8 713.893L354.8 718.893ZM346.743 718.893L342.714 718.893L342.714 713.893L346.743 713.893L346.743 718.893ZM338.686 718.893L334.658 718.893L334.658 713.893L338.686 713.893L338.686 718.893ZM330.629 718.893L326.601 718.893L326.601 713.893L330.629 713.893L330.629 718.893ZM322.572 718.893L318.544 718.893L318.544 713.893L322.572 713.893L322.572 718.893ZM314.516 718.893L312.501 718.893L312.501 713.893L314.516 713.893L314.516 718.893ZM284.593 718.893L280.656 718.893L280.656 713.893L284.593 713.893L284.593 718.893ZM276.718 718.893L272.781 718.893L272.781 713.893L276.718 713.893L276.718 718.893ZM268.843 718.893L264.906 718.893L264.906 713.893L268.843 713.893L268.843 718.893ZM260.968 718.893L257.031 718.893L257.031 713.893L260.968 713.893L260.968 718.893ZM253.093 718.893L249.156 718.893L249.156 713.893L253.093 713.893L253.093 718.893ZM245.219 718.893L241.281 718.893L241.281 713.893L245.219 713.893L245.219 718.893ZM237.344 718.893L233.406 718.893L233.406 713.893L237.344 713.893L237.344 718.893ZM229.469 718.893L225.531 718.893L225.531 713.893L229.469 713.893L229.469 718.893ZM221.594 718.893L217.656 718.893L217.656 713.893L221.594 713.893L221.594 718.893ZM213.719 718.893L209.782 718.893L209.782 713.893L213.719 713.893L213.719 718.893ZM205.844 718.893L201.907 718.893L201.907 713.893L205.844 713.893L205.844 718.893ZM197.969 718.893L196 718.893L196 713.893L197.969 713.893L197.969 718.893Z" fill="#CC0000"/>
<ellipse cx="508.345" cy="622" rx="44.6572" ry="45" fill="#CC0000"/>
<path d="M527.125 611.154H521.489C521.156 609.533 520.572 608.109 519.739 606.882C518.921 605.654 517.921 604.624 516.739 603.791C515.572 602.942 514.277 602.306 512.853 601.882C511.428 601.457 509.943 601.245 508.398 601.245C505.58 601.245 503.027 601.957 500.739 603.382C498.466 604.806 496.656 606.904 495.307 609.677C493.974 612.45 493.307 615.851 493.307 619.882C493.307 623.912 493.974 627.313 495.307 630.086C496.656 632.859 498.466 634.957 500.739 636.382C503.027 637.806 505.58 638.518 508.398 638.518C509.943 638.518 511.428 638.306 512.853 637.882C514.277 637.457 515.572 636.829 516.739 635.995C517.921 635.147 518.921 634.109 519.739 632.882C520.572 631.639 521.156 630.215 521.489 628.609H527.125C526.701 630.988 525.928 633.116 524.807 634.995C523.686 636.874 522.292 638.472 520.625 639.791C518.959 641.094 517.087 642.086 515.012 642.768C512.951 643.45 510.747 643.791 508.398 643.791C504.428 643.791 500.898 642.821 497.807 640.882C494.716 638.942 492.284 636.185 490.512 632.609C488.739 629.033 487.853 624.791 487.853 619.882C487.853 614.972 488.739 610.73 490.512 607.154C492.284 603.579 494.716 600.821 497.807 598.882C500.898 596.942 504.428 595.972 508.398 595.972C510.747 595.972 512.951 596.313 515.012 596.995C517.087 597.677 518.959 598.677 520.625 599.995C522.292 601.298 523.686 602.889 524.807 604.768C525.928 606.632 526.701 608.76 527.125 611.154Z" fill="white"/>
<circle cx="250.002" cy="617" r="45" fill="#CC0000"/>
<path d="M235.171 639.154V592.609H251.444C254.686 592.609 257.36 593.169 259.467 594.291C261.573 595.397 263.141 596.889 264.171 598.768C265.201 600.632 265.717 602.7 265.717 604.972C265.717 606.972 265.36 608.624 264.648 609.927C263.951 611.23 263.027 612.26 261.876 613.018C260.739 613.776 259.504 614.336 258.171 614.7V615.154C259.595 615.245 261.027 615.745 262.467 616.654C263.906 617.563 265.11 618.866 266.08 620.563C267.05 622.26 267.535 624.336 267.535 626.791C267.535 629.124 267.004 631.222 265.944 633.086C264.883 634.95 263.209 636.427 260.921 637.518C258.633 638.609 255.656 639.154 251.989 639.154H235.171ZM240.807 634.154H251.989C255.671 634.154 258.285 633.442 259.83 632.018C261.391 630.579 262.171 628.836 262.171 626.791C262.171 625.215 261.77 623.76 260.967 622.427C260.163 621.079 259.02 620.003 257.535 619.2C256.05 618.382 254.292 617.972 252.262 617.972H240.807V634.154ZM240.807 613.063H251.262C252.959 613.063 254.489 612.73 255.853 612.063C257.232 611.397 258.323 610.457 259.126 609.245C259.944 608.033 260.353 606.609 260.353 604.972C260.353 602.927 259.641 601.192 258.217 599.768C256.792 598.329 254.535 597.609 251.444 597.609H240.807V613.063Z" fill="white"/>
</svg>
