<svg width="150" height="272" viewBox="0 0 150 272" fill="none" xmlns="http://www.w3.org/2000/svg">
<path fill-rule="evenodd" clip-rule="evenodd" d="M59.4189 53.02H90.5989C95.9889 53.02 100.389 57.43 100.389 62.81V73.13H94.0189V62.82C94.0189 60.95 92.4589 59.4 90.5989 59.4H59.4189C57.5489 59.4 55.9989 60.95 55.9989 62.82V73.14H49.6289V62.82C49.6289 57.43 54.0389 53.02 59.4189 53.02Z" fill="#006671"/>
<path fill-rule="evenodd" clip-rule="evenodd" d="M43.0495 1.81982H106.98C112.37 1.81982 116.78 6.23982 116.78 11.6098V74.7198H110.41V11.6198C110.41 9.74982 108.85 8.19982 106.99 8.19982H43.0595C41.1895 8.19982 39.6395 9.75982 39.6395 11.6198V74.7298H33.2695V11.6198C33.2595 6.23982 37.6595 1.81982 43.0495 1.81982Z" fill="#CCCCCC"/>
<path d="M27.6898 252.9H15.2598V271.7H27.6898V252.9Z" fill="#006671"/>
<path d="M134.77 252.9H122.34V271.7H134.77V252.9Z" fill="#006671"/>
<path fill-rule="evenodd" clip-rule="evenodd" d="M7.94928 71.5098H142.089C146.449 71.5098 150.009 75.0698 150.009 79.4298V250C150.009 254.36 146.449 257.93 142.089 257.93H7.94928C3.58928 257.93 0.0292969 254.36 0.0292969 250V79.4298C0.0292969 75.0698 3.58928 71.5098 7.94928 71.5098Z" fill="#129393"/>
<path fill-rule="evenodd" clip-rule="evenodd" d="M137.68 257.93H12.3398V95.7999C12.3398 89.9399 17.1298 85.1499 22.9898 85.1499H127.03C132.89 85.1499 137.68 89.9399 137.68 95.7999V257.93Z" fill="#66A3AA"/>
<path fill-rule="evenodd" clip-rule="evenodd" d="M134.95 257.93H15.0801V95.7999C15.0801 91.4499 18.6501 87.8799 23.0001 87.8799H127.04C131.39 87.8799 134.96 91.4399 134.96 95.7999V257.93H134.95Z" fill="#129393"/>
<path d="M96.5688 0H53.4688V10.02H96.5688V0Z" fill="#4D4D4D"/>
<path fill-rule="evenodd" clip-rule="evenodd" d="M122.1 257.93H27.9199V127.43V126.34L28.6699 125.55C39.5899 114.03 59.7799 109.97 75.0099 109.97C90.2399 109.97 110.43 114.03 121.35 125.55L122.1 126.34V127.43V257.93Z" fill="#66A3AA"/>
<path fill-rule="evenodd" clip-rule="evenodd" d="M119.368 257.93H30.6484V127.43C38.9484 118.68 55.6884 112.7 75.0084 112.7C94.3184 112.7 111.068 118.68 119.368 127.43V257.93Z" fill="#129393"/>
<path fill-rule="evenodd" clip-rule="evenodd" d="M44.2792 116.91L46.9492 119.37V133.74H41.6191V119.37L44.2792 116.91Z" fill="#22B4B0"/>
<path fill-rule="evenodd" clip-rule="evenodd" d="M51.2889 114.27L53.9489 116.73V131.1H48.6289V116.73L51.2889 114.27Z" fill="#22B4B0"/>
</svg>
