<svg width="271" height="214" viewBox="0 0 271 214" fill="none" xmlns="http://www.w3.org/2000/svg">
<path fill-rule="evenodd" clip-rule="evenodd" d="M245.869 99.8003C245.869 99.8003 266.009 131.04 265.489 134.3C264.969 137.56 248.079 143.96 248.079 143.96L242.369 120.78L245.869 99.8003Z" fill="#333333"/>
<path fill-rule="evenodd" clip-rule="evenodd" d="M56.2599 98.76C51.7499 110.78 14.9999 144.16 13.2199 167.7C12.8999 171.94 11.0899 177.65 9.55991 182.67C9.55991 182.67 4.32992 194.29 8.41992 201.26C7.44992 200.35 6.5199 199.28 5.6199 198.03C0.989903 191.58 -0.290098 179.55 0.649902 167.13C4.3999 117.85 29.8899 116.12 38.9199 92.23L56.2599 98.76Z" fill="url(#paint0_linear_318_91)"/>
<path fill-rule="evenodd" clip-rule="evenodd" d="M154.821 7.87988C154.821 7.87988 162.561 16.3999 160.921 29.9699C158.481 50.1399 143.661 99.1999 151.631 93.7499L167.841 82.6599L169.431 64.6699C169.431 64.6699 166.831 37.8599 165.271 27.9799C163.721 18.0999 161.681 10.2899 154.821 7.87988Z" fill="#333333"/>
<path fill-rule="evenodd" clip-rule="evenodd" d="M134.46 9.24023C134.46 9.24023 125.61 16.6002 125.35 30.2702C124.96 50.5802 132.84 101.23 125.7 94.7202L111.18 81.4902L112.1 63.4602C112.1 63.4602 118.39 37.2702 121.31 27.7002C124.23 18.1202 127.33 10.6702 134.46 9.24023Z" fill="#333333"/>
<path fill-rule="evenodd" clip-rule="evenodd" d="M18.209 123.41C18.209 123.41 20.689 116.11 32.119 118.69C43.549 121.27 36.419 128.65 36.419 128.65L22.899 136.27L18.209 123.41Z" fill="#CE2E3B"/>
<path fill-rule="evenodd" clip-rule="evenodd" d="M33.0194 130.56L23.2794 136.05C23.0594 135.9 22.8495 135.74 22.6395 135.58L19.9395 128.18C21.7995 120.25 30.9195 119.21 30.9195 119.21C30.9195 119.21 33.9894 127.57 33.9894 128.43C33.9994 128.65 33.5994 129.48 33.0194 130.56Z" fill="#BA2431"/>
<path fill-rule="evenodd" clip-rule="evenodd" d="M58.1106 75.5602C58.1106 75.5602 40.9006 76.3002 35.2506 93.5002C31.9006 103.7 27.7706 130.31 24.9606 150.29C22.4506 168.19 14.3906 189.82 32.0506 200.92C57.9206 217.18 221.511 217.18 247.381 200.92C265.041 189.82 256.991 168.19 254.471 150.29C251.661 130.31 247.531 103.7 244.181 93.5002C238.531 76.2902 221.321 75.5602 221.321 75.5602C165.171 74.9402 114.271 74.9402 58.1106 75.5602Z" fill="url(#paint1_linear_318_91)"/>
<path fill-rule="evenodd" clip-rule="evenodd" d="M39.3906 203.78C77.0906 216.26 202.961 216.23 240.291 203.7C240.311 203.62 240.311 203.57 240.311 203.57C237.891 183.94 234.661 160.65 232.001 151.14C227.011 133.36 211.841 132.6 211.841 132.6C162.311 131.95 117.421 131.95 67.8906 132.6C67.8906 132.6 52.7106 133.36 47.7306 151.14C45.0506 160.68 41.8106 184.11 39.3906 203.78Z" fill="url(#paint2_linear_318_91)"/>
<path fill-rule="evenodd" clip-rule="evenodd" d="M43.1094 202.02C45.3894 186.95 46.7694 154.61 58.2494 143.8C61.0394 141.18 64.5994 139.13 69.0394 138.6C81.3294 137.13 132.829 138.35 133.989 138.6C135.159 138.85 135.339 140.69 135.159 144.19C134.979 147.69 136.839 205.58 137.509 207.06C138.169 208.53 137.509 135.59 137.509 135.59C137.509 135.59 72.9094 135.19 66.7694 136.66C63.6994 137.4 59.6794 139.47 56.1694 142.47C43.9494 152.91 44.5194 186.16 43.1094 202.02Z" fill="#A01823"/>
<path fill-rule="evenodd" clip-rule="evenodd" d="M236.919 202.02C234.639 186.95 233.259 154.61 221.779 143.8C218.989 141.18 215.429 139.13 210.989 138.6C198.699 137.13 147.259 138.35 146.089 138.6C144.919 138.85 144.739 140.69 144.919 144.19C145.099 147.69 143.239 205.58 142.569 207.06C141.909 208.53 142.569 135.59 142.569 135.59C142.569 135.59 207.109 135.19 213.259 136.66C216.329 137.4 220.349 139.47 223.859 142.47C236.079 152.91 235.509 186.16 236.919 202.02Z" fill="#A01823"/>
<path fill-rule="evenodd" clip-rule="evenodd" d="M43.1094 202.02C44.2894 194.18 45.2394 181.66 47.4894 169.94C46.9294 169.41 46.3794 168.88 45.8494 168.35C44.0494 180.48 43.8494 193.66 43.1094 202.02ZM136.929 199.02C137.159 203.65 137.359 206.72 137.509 207.05C137.649 207.37 137.729 204.19 137.769 199.03L136.929 199.02Z" fill="#A01823"/>
<path fill-rule="evenodd" clip-rule="evenodd" d="M236.92 202.02C235.65 193.61 234.66 179.82 232.03 167.39C232.61 166.8 233.18 166.19 233.73 165.58C235.96 178.43 236.12 193.02 236.92 202.02ZM143.16 199C142.93 203.64 142.73 206.72 142.58 207.05C142.44 207.37 142.35 204.19 142.32 199.01L143.16 199Z" fill="#A01823"/>
<path fill-rule="evenodd" clip-rule="evenodd" d="M56.5703 75.73C52.2203 76.38 39.8802 79.43 35.2502 93.51C32.1002 103.08 28.2702 127.12 25.4902 146.56L39.1902 140.47C39.1902 140.47 45.6002 111.77 46.0902 97.89C46.5502 85.14 57.7503 81.71 56.5703 75.73Z" fill="url(#paint3_linear_318_91)"/>
<path fill-rule="evenodd" clip-rule="evenodd" d="M20.4803 120.39C20.4803 120.39 17.9403 122.48 19.0203 125.63C20.0503 128.65 24.5903 132.71 29.3003 133.65C38.9103 135.56 40.4603 136.13 39.2003 140.47C37.2803 147.13 29.3903 196.1 27.6203 195.79C23.7203 195.1 12.4903 182.99 12.7203 158.23C12.9503 133.47 14.1203 125.69 20.4803 120.39Z" fill="url(#paint4_linear_318_91)"/>
<path fill-rule="evenodd" clip-rule="evenodd" d="M261.19 123.41C261.19 123.41 258.71 116.11 247.28 118.69C235.85 121.27 242.98 128.65 242.98 128.65L256.5 136.27L261.19 123.41Z" fill="#CE2E3B"/>
<path fill-rule="evenodd" clip-rule="evenodd" d="M246.38 130.56L256.12 136.05C256.34 135.9 256.55 135.74 256.76 135.58L259.46 128.18C257.6 120.25 248.48 119.21 248.48 119.21C248.48 119.21 245.41 127.57 245.41 128.43C245.4 128.65 245.8 129.48 246.38 130.56Z" fill="#BA2431"/>
<path fill-rule="evenodd" clip-rule="evenodd" d="M222.829 75.73C227.179 76.38 239.519 79.43 244.149 93.51C247.299 103.08 251.129 127.12 253.909 146.56L240.209 140.47C240.209 140.47 233.799 111.77 233.309 97.89C232.849 85.14 221.649 81.71 222.829 75.73Z" fill="url(#paint5_linear_318_91)"/>
<path fill-rule="evenodd" clip-rule="evenodd" d="M258.92 120.39C258.92 120.39 261.46 122.48 260.38 125.63C259.35 128.65 254.81 132.71 250.1 133.65C240.49 135.56 238.94 136.13 240.2 140.47C242.12 147.13 250.01 196.1 251.78 195.79C255.68 195.1 266.91 182.99 266.68 158.23C266.45 133.47 265.28 125.69 258.92 120.39Z" fill="url(#paint6_linear_318_91)"/>
<path fill-rule="evenodd" clip-rule="evenodd" d="M51.3691 82.6299C51.3691 82.6299 53.6391 80.5999 59.3591 80.5399C65.0791 80.4799 105.139 81.8299 126.029 81.3399C146.919 80.8499 181.339 81.3399 191.169 82.0799C200.999 82.8199 218.399 79.8099 219.809 80.1099C221.219 80.4199 229.949 80.7199 231.789 82.3199C233.629 83.9199 229.579 77.0399 219.619 77.5299C209.659 78.0199 201.679 78.8799 194.419 78.6399C187.169 78.3899 163.569 78.5199 150.299 78.3899C137.029 78.2699 68.0792 77.8999 60.8892 78.2699C53.6992 78.6399 51.3691 82.6299 51.3691 82.6299Z" fill="#A01823"/>
<path fill-rule="evenodd" clip-rule="evenodd" d="M52.4293 84.1201C51.9593 84.5001 52.5193 85.2201 52.9993 84.8501L53.0093 84.8401L52.4293 84.1201ZM230.069 85.1001C230.579 85.3601 231.039 84.5501 230.449 84.2501C229.879 83.9901 229.289 83.7401 228.699 83.5301C228.099 83.3301 227.829 84.2201 228.389 84.4101C228.969 84.6201 229.519 84.8501 230.069 85.1001ZM225.769 83.6401C226.449 83.7501 226.509 82.8201 225.979 82.7301C225.359 82.5901 224.749 82.4801 224.119 82.3701C223.529 82.2701 223.359 83.1901 223.979 83.2901C224.589 83.3901 225.169 83.5001 225.769 83.6401ZM221.249 82.9701C221.939 82.9701 221.849 82.0401 221.319 82.0401C220.689 82.0001 220.069 81.9701 219.439 81.9601C218.799 81.9601 218.829 82.8901 219.419 82.8901C220.039 82.9101 220.639 82.9401 221.249 82.9701ZM216.659 82.9201C217.229 82.9201 217.279 81.9901 216.619 81.9901C215.999 82.0101 215.369 82.0401 214.749 82.0901C214.219 82.0901 214.119 83.0201 214.819 83.0201C215.429 82.9701 216.049 82.9401 216.659 82.9201ZM212.059 83.2601C212.729 83.1501 212.499 82.2501 211.959 82.3401C211.339 82.4001 210.719 82.4701 210.109 82.5501C209.449 82.6601 209.669 83.5601 210.219 83.4701C210.819 83.3801 211.459 83.3201 212.059 83.2601ZM207.459 83.8201C208.099 83.7101 207.899 82.8001 207.339 82.9001L205.499 83.1501C204.859 83.2601 205.059 84.1601 205.619 84.0701L207.459 83.8201ZM202.849 84.4201C203.499 84.3101 203.289 83.4101 202.739 83.5001L200.899 83.7101C200.229 83.8201 200.459 84.7201 200.999 84.6301L202.849 84.4201ZM198.199 84.8801C198.739 84.8801 198.829 83.9501 198.139 83.9501C197.529 83.9901 196.919 84.0201 196.299 84.0401C195.719 84.0401 195.679 84.9701 196.329 84.9701C196.959 84.9501 197.579 84.9201 198.199 84.8801ZM193.509 84.9501C194.189 84.9501 194.109 84.0201 193.559 84.0201C192.979 83.9901 192.319 83.9501 191.739 83.8601C191.179 83.7701 190.979 84.6701 191.619 84.7801C192.249 84.8601 192.869 84.9201 193.509 84.9501ZM188.889 84.4501C189.569 84.4501 189.489 83.5201 188.939 83.5201L187.079 83.4301C186.419 83.4301 186.479 84.3601 187.039 84.3601L188.889 84.4501ZM184.259 84.2601C184.909 84.2601 184.869 83.3301 184.289 83.3301L182.429 83.2801C181.789 83.2801 181.819 84.2101 182.409 84.2101L184.259 84.2601ZM179.619 84.1501C180.259 84.1501 180.229 83.2201 179.639 83.2201L177.779 83.1801C177.139 83.1801 177.169 84.1101 177.759 84.1101L179.619 84.1501ZM174.979 84.0501C175.609 84.0501 175.589 83.1201 174.999 83.1201L173.139 83.0901C172.509 83.0901 172.529 84.0201 173.119 84.0201L174.979 84.0501ZM170.339 83.9601C170.969 83.9601 170.949 83.0301 170.359 83.0301L168.499 83.0001C167.869 83.0001 167.889 83.9301 168.479 83.9301L170.339 83.9601ZM165.689 83.8901C166.319 83.8901 166.299 82.9601 165.699 82.9601C165.079 82.9501 164.459 82.9501 163.839 82.9301C163.209 82.9301 163.229 83.8601 163.829 83.8601C164.449 83.8801 165.069 83.8801 165.689 83.8901ZM161.049 83.8201C161.679 83.8201 161.659 82.8901 161.059 82.8901L159.199 82.8601C158.569 82.8601 158.589 83.7901 159.189 83.7901L161.049 83.8201ZM156.399 83.7501C157.029 83.7501 157.009 82.8201 156.409 82.8201L154.549 82.7901C153.919 82.7901 153.939 83.7201 154.539 83.7201L156.399 83.7501ZM151.759 83.6801C152.389 83.6801 152.369 82.7501 151.769 82.7501C151.219 82.7401 150.439 82.7801 149.909 82.7201C149.279 82.7201 149.299 83.6501 149.899 83.6501C150.459 83.7001 151.179 83.6801 151.759 83.6801ZM147.109 83.6201C147.739 83.6201 147.719 82.6901 147.119 82.6901L145.259 82.6601C144.629 82.6601 144.649 83.5901 145.249 83.5901L147.109 83.6201ZM142.469 83.5501C143.099 83.5501 143.079 82.6201 142.479 82.6201L140.619 82.5901C139.989 82.5901 140.009 83.5201 140.599 83.5201L142.469 83.5501ZM137.819 83.4701C138.449 83.4701 138.429 82.5401 137.839 82.5401L135.979 82.5101C135.349 82.5101 135.369 83.4401 135.969 83.4401L137.819 83.4701ZM133.179 83.4101C133.799 83.4101 133.789 82.4801 133.189 82.4801C132.569 82.4801 131.949 82.4701 131.329 82.4601C130.709 82.4601 130.719 83.3901 131.319 83.3901C131.939 83.4001 132.559 83.4101 133.179 83.4101ZM128.539 83.3701C129.159 83.3701 129.149 82.4401 128.549 82.4401L126.689 82.4301C126.069 82.4301 126.079 83.3601 126.679 83.3601L128.539 83.3701ZM123.889 83.3301C124.509 83.3301 124.499 82.4001 123.899 82.4001C123.329 82.4001 122.589 82.4301 122.039 82.3901C121.419 82.3901 121.429 83.3201 122.029 83.3201C122.589 83.3601 123.319 83.3301 123.889 83.3301ZM119.249 83.3001C119.869 83.3001 119.859 82.3701 119.249 82.3701L117.389 82.3601C116.769 82.3601 116.779 83.2901 117.389 83.2901L119.249 83.3001ZM114.599 83.2801C115.219 83.2801 115.209 82.3501 114.609 82.3501L112.749 82.3401C112.129 82.3401 112.139 83.2701 112.739 83.2701L114.599 83.2801ZM109.959 83.2501C110.579 83.2501 110.569 82.3201 109.969 82.3201L108.109 82.3101C107.489 82.3101 107.499 83.2401 108.099 83.2401L109.959 83.2501ZM105.309 83.2201C105.929 83.2201 105.919 82.2901 105.319 82.2901L103.459 82.2801C102.839 82.2801 102.849 83.2101 103.449 83.2101L105.309 83.2201ZM100.669 83.1801C101.289 83.1801 101.279 82.2501 100.679 82.2501C100.059 82.2501 99.4393 82.2401 98.8193 82.2301C98.1993 82.2301 98.2093 83.1601 98.8093 83.1601C99.4293 83.1701 100.049 83.1801 100.669 83.1801ZM96.0193 83.1301C96.6393 83.1301 96.6293 82.2001 96.0293 82.2001L94.1693 82.1801C93.5393 82.1801 93.5593 83.1101 94.1593 83.1101L96.0193 83.1301ZM91.3693 83.0801C91.9993 83.0801 91.9793 82.1501 91.3793 82.1501L89.5193 82.1201C88.8893 82.1201 88.9093 83.0501 89.5093 83.0501L91.3693 83.0801ZM86.7293 83.0101C87.3593 83.0101 87.3393 82.0801 86.7493 82.0801C86.1493 82.0701 85.4893 82.0801 84.8893 82.0501C84.2493 82.0501 84.2793 82.9801 84.8693 82.9801C85.4693 83.0101 86.1193 83.0001 86.7293 83.0101ZM82.0793 82.9201C82.7193 82.9201 82.6893 81.9901 82.0993 81.9901C81.4893 81.9901 80.8593 81.9601 80.2393 81.9501C79.5993 81.9501 79.6293 82.8801 80.2193 82.8801C80.8393 82.8901 81.4693 82.9201 82.0793 82.9201ZM77.4293 82.8001C78.0793 82.8001 78.0393 81.8701 77.4593 81.8701L75.5993 81.8101C74.9493 81.8101 74.9993 82.7401 75.5693 82.7401L77.4293 82.8001ZM72.7893 82.6201C73.4493 82.6201 73.3893 81.6901 72.8293 81.6901L70.9693 81.6101C70.3193 81.6101 70.3693 82.5401 70.9393 82.5401L72.7893 82.6201ZM68.1593 82.4901C68.7793 82.4901 68.7693 81.5601 68.1593 81.5601C67.5393 81.5601 66.9093 81.5601 66.2893 81.5701C65.6993 81.5701 65.6693 82.5001 66.3093 82.5001C66.9293 82.4901 67.5393 82.4901 68.1593 82.4901ZM63.5493 82.6001C64.0993 82.6001 64.1793 81.6701 63.4993 81.6701C62.8793 81.7001 62.2493 81.7501 61.6293 81.8001C60.9393 81.9101 61.1893 82.8101 61.7093 82.7301C62.2993 82.6701 62.9493 82.6301 63.5493 82.6001ZM58.9693 83.0601C59.5893 82.9601 59.4193 82.0401 58.8293 82.1401C58.2193 82.2301 57.5793 82.3401 56.9793 82.4801C56.4293 82.5701 56.5193 83.5001 57.1693 83.3901C57.7593 83.2601 58.3693 83.1501 58.9693 83.0601ZM54.5493 84.1101C55.0993 83.9301 54.8393 83.0301 54.2293 83.2401L54.5493 84.1101Z" fill="#CA2C3A"/>
<path fill-rule="evenodd" clip-rule="evenodd" d="M54.3594 144.27C54.3594 144.27 59.5294 134.38 71.6994 133.88C83.8694 133.39 146.359 133.82 155.829 133.51C163.389 133.26 195.469 132.8 211.249 134.39C223.209 135.6 226.239 141.11 230.449 152.82C230.449 152.82 222.699 137.17 210.579 136.32C198.469 135.47 148.629 135.98 137.019 135.57C125.399 135.16 70.8894 135.28 66.0994 136.82C61.3094 138.37 54.3594 144.27 54.3594 144.27Z" fill="#BA2431"/>
<path fill-rule="evenodd" clip-rule="evenodd" d="M56.8693 79.8402C56.8693 79.8402 56.2393 79.1502 56.2093 78.9602C56.1793 78.7802 58.4193 76.9002 58.9793 76.8602C59.5293 76.8102 60.5193 78.2002 60.8093 78.5302C61.0993 78.8702 61.3893 79.4502 61.0393 79.5302C60.6893 79.6102 60.3493 79.8202 60.1993 79.6502C60.0493 79.4802 59.7693 79.2702 59.8593 79.1602C59.9493 79.0502 59.9093 78.7002 59.6593 78.5002C59.4093 78.3002 59.5093 77.9302 58.9493 78.1302C58.3993 78.3302 57.2593 78.9002 57.2793 79.0202C57.2993 79.1402 57.9393 79.8202 57.5893 80.1002C57.2193 80.3702 56.8693 79.8402 56.8693 79.8402Z" fill="#373538"/>
<path fill-rule="evenodd" clip-rule="evenodd" d="M56.2101 78.96C56.2101 78.96 46.2601 83.12 46.1301 83.43C46.0101 83.74 46.3101 84.57 46.7401 84.6C47.1701 84.63 54.7601 81.31 55.4701 80.97C56.1801 80.63 56.9001 79.88 56.9001 79.88L56.2101 78.96Z" fill="#373538"/>
<path fill-rule="evenodd" clip-rule="evenodd" d="M64.1095 135.65C64.1095 135.65 63.4795 134.96 63.4495 134.77C63.4195 134.59 65.6595 132.71 66.2195 132.67C66.7795 132.63 67.7595 134.01 68.0495 134.34C68.3395 134.68 68.6295 135.26 68.2795 135.34C67.9295 135.42 67.5895 135.63 67.4295 135.46C67.2795 135.29 66.9995 135.08 67.0895 134.97C67.1795 134.86 67.1395 134.51 66.8895 134.31C66.6395 134.11 66.7395 133.74 66.1795 133.94C65.6295 134.14 64.4895 134.71 64.5095 134.83C64.5295 134.95 65.1695 135.63 64.8195 135.91C64.4695 136.18 64.1095 135.65 64.1095 135.65Z" fill="#373538"/>
<path fill-rule="evenodd" clip-rule="evenodd" d="M63.4504 134.771C63.4504 134.771 53.5004 138.931 53.3704 139.241C53.2504 139.551 53.5504 140.381 53.9804 140.411C54.4104 140.441 62.0004 137.121 62.7104 136.781C63.4204 136.441 64.1404 135.68 64.1404 135.68L63.4504 134.771Z" fill="#373538"/>
<path fill-rule="evenodd" clip-rule="evenodd" d="M51.2304 84.6299C51.2304 84.6299 48.0903 89.6199 47.0503 94.6499C46.0103 99.6799 42.5004 128.2 41.7604 131.4C41.0204 134.6 40.3804 138.76 39.5304 138.92C38.6904 139.08 40.1004 133.3 40.4704 129.86C40.8404 126.42 43.9704 105.16 44.2804 101.22C44.5904 97.2899 45.5704 90.6499 51.2304 84.6299Z" fill="#A01823"/>
<path fill-rule="evenodd" clip-rule="evenodd" d="M228.15 84.6299C228.15 84.6299 231.29 89.6199 232.33 94.6499C233.37 99.6799 236.88 128.2 237.62 131.4C238.36 134.6 239 138.76 239.85 138.92C240.69 139.08 239.28 133.3 238.91 129.86C238.54 126.42 235.41 105.16 235.1 101.22C234.79 97.2899 233.81 90.6499 228.15 84.6299Z" fill="#A01823"/>
<path fill-rule="evenodd" clip-rule="evenodd" d="M85.2191 85.4201C85.2191 84.0701 85.9191 77.5501 87.3991 72.7601C88.8791 67.9701 97.3491 51.6801 101.399 43.9401C105.439 36.2001 111.669 33.2501 115.549 28.9501C119.439 24.6501 125.389 1.83008 143.859 0.620078C161.169 -0.509922 164.459 20.0101 170.849 26.8601C179.089 35.7101 184.069 43.3301 185.939 51.6901C187.809 60.0501 194.109 78.5401 194.259 83.9501C194.719 99.8701 194.219 116.24 194.219 132.22H172.879C172.879 125.2 173.639 77.5501 170.149 71.0201C167.189 65.4901 157.709 50.8601 156.769 38.4501C155.839 26.0401 161.119 26.6501 157.779 20.5101C154.439 14.3601 160.269 6.13008 145.099 6.13008C129.939 6.13008 119.899 27.6401 119.749 35.3801C119.589 43.1201 122.859 48.5301 119.749 54.5501C116.639 60.5701 106.909 73.9701 106.449 80.1101C105.329 94.8001 106.459 118.69 106.459 132.22H85.1191C85.1191 116.49 85.2191 101.05 85.2191 85.4201Z" fill="url(#paint7_linear_318_91)"/>
<path fill-rule="evenodd" clip-rule="evenodd" d="M161.23 10.4102C165.14 16.3302 167.59 23.3602 170.84 26.8602C179.08 35.7102 184.06 43.3302 185.93 51.6902C186.4 53.7902 187.15 56.5402 188.01 59.5602C185.4 53.2802 180.74 49.7002 177.58 45.7502C173.65 40.8302 167.75 31.9802 167.62 25.9602C167.51 20.3402 161.96 11.5502 161.23 10.4102ZM189.5 64.6902L190.15 66.9202C189.91 66.4502 189.69 65.7202 189.5 64.6902Z" fill="#555555"/>
<path fill-rule="evenodd" clip-rule="evenodd" d="M156.929 18.2698L156.889 18.1299C156.919 18.1799 156.929 18.2198 156.929 18.2698ZM156.679 16.9998C155.859 11.6298 157.509 6.10985 145.099 6.10985C139.649 6.10985 134.859 8.88985 130.949 12.8198C130.949 12.8198 133.399 7.64985 141.629 5.30985C149.869 2.96985 156.689 6.53985 157.359 8.56985C157.949 10.3198 156.519 14.3998 156.679 16.9998Z" fill="#333333"/>
<path fill-rule="evenodd" clip-rule="evenodd" d="M194.349 114C194.289 120.1 194.209 126.19 194.209 132.22H172.869C172.869 130.12 172.939 124.36 172.939 117.16C174.029 119.8 176.399 123.06 181.539 124.29C188.889 126.05 192.919 118.32 194.349 114Z" fill="url(#paint8_linear_318_91)"/>
<path fill-rule="evenodd" clip-rule="evenodd" d="M106.209 116.2C106.329 122.2 106.459 127.77 106.459 132.21H85.1191C85.1191 126.67 85.1291 121.16 85.1491 115.67C85.9191 118.42 88.0992 122.8 94.2592 124.28C100.469 125.78 104.309 120.49 106.209 116.2Z" fill="url(#paint9_linear_318_91)"/>
<path fill-rule="evenodd" clip-rule="evenodd" d="M86.5395 114.3C85.9295 114.3 85.9295 115.23 86.5395 115.23L88.3995 115.22C89.0095 115.22 89.0095 114.29 88.3995 114.29L86.5395 114.3ZM102.33 115.18C102.94 115.18 102.94 114.25 102.33 114.25L100.47 114.26C99.8595 114.26 99.8595 115.19 100.47 115.19L102.33 115.18ZM97.6895 115.19C98.2995 115.19 98.2995 114.26 97.6895 114.26L95.8295 114.27C95.2195 114.27 95.2195 115.2 95.8295 115.2L97.6895 115.19ZM93.0395 115.21C93.6495 115.21 93.6495 114.28 93.0395 114.28L91.1795 114.29C90.5695 114.29 90.5695 115.22 91.1795 115.22L93.0395 115.21Z" fill="black"/>
<path fill-rule="evenodd" clip-rule="evenodd" d="M86.5395 129.08C85.9295 129.08 85.9295 130.01 86.5395 130.01L88.3995 130C89.0095 130 89.0095 129.07 88.3995 129.07L86.5395 129.08ZM102.33 129.95C102.94 129.95 102.94 129.02 102.33 129.02L100.47 129.03C99.8595 129.03 99.8595 129.96 100.47 129.96L102.33 129.95ZM97.6895 129.97C98.2995 129.97 98.2995 129.04 97.6895 129.04L95.8295 129.05C95.2195 129.05 95.2195 129.98 95.8295 129.98L97.6895 129.97ZM93.0395 129.99C93.6495 129.99 93.6495 129.06 93.0395 129.06L91.1795 129.07C90.5695 129.07 90.5695 130 91.1795 130L93.0395 129.99Z" fill="black"/>
<path fill-rule="evenodd" clip-rule="evenodd" d="M175.61 114.3C175 114.3 175 115.23 175.61 115.23L177.47 115.22C178.08 115.22 178.08 114.29 177.47 114.29L175.61 114.3ZM191.41 115.18C192.02 115.18 192.02 114.25 191.41 114.25L189.55 114.26C188.94 114.26 188.94 115.19 189.55 115.19L191.41 115.18ZM186.77 115.19C187.38 115.19 187.38 114.26 186.77 114.26L184.91 114.27C184.3 114.27 184.3 115.2 184.91 115.2L186.77 115.19ZM182.12 115.21C182.73 115.21 182.73 114.28 182.12 114.28L180.26 114.29C179.65 114.29 179.65 115.22 180.26 115.22L182.12 115.21Z" fill="black"/>
<path fill-rule="evenodd" clip-rule="evenodd" d="M175.61 129.08C175 129.08 175 130.01 175.61 130.01L177.47 130C178.08 130 178.08 129.07 177.47 129.07L175.61 129.08ZM191.41 129.95C192.02 129.95 192.02 129.02 191.41 129.02L189.55 129.03C188.94 129.03 188.94 129.96 189.55 129.96L191.41 129.95ZM186.77 129.97C187.38 129.97 187.38 129.04 186.77 129.04L184.91 129.05C184.3 129.05 184.3 129.98 184.91 129.98L186.77 129.97ZM182.12 129.99C182.73 129.99 182.73 129.06 182.12 129.06L180.26 129.07C179.65 129.07 179.65 130 180.26 130L182.12 129.99Z" fill="black"/>
<path fill-rule="evenodd" clip-rule="evenodd" d="M116.949 29.4702C116.949 29.4702 112.649 37.7002 109.209 43.8502C105.769 50.0002 99.8691 59.7002 97.8991 58.9702C95.9291 58.2302 100.849 48.7702 105.029 43.6102C109.209 38.4402 116.949 29.4702 116.949 29.4702Z" fill="#555555"/>
<path fill-rule="evenodd" clip-rule="evenodd" d="M117.439 39.4199C117.439 39.4199 117.069 47.5299 116.089 52.1999C115.109 56.8699 113.389 59.4499 111.169 60.7999C108.959 62.1499 110.059 55.6399 112.519 50.8399C114.979 46.0599 117.439 39.4199 117.439 39.4199Z" fill="#555555"/>
<path opacity="0.5" fill-rule="evenodd" clip-rule="evenodd" d="M89.7097 75.27C91.8597 75.26 95.6697 76.04 98.7497 75.62C101.82 75.2 105.02 75.22 104.47 78.15C103.92 81.09 104.92 81.14 99.7497 83.17C94.5797 85.2 89.4797 85.24 88.4397 83.17C87.3797 81.11 86.8397 74.82 89.7097 75.27Z" fill="#808080"/>
<path opacity="0.5" fill-rule="evenodd" clip-rule="evenodd" d="M90.5903 77.7699C92.4403 77.7599 95.7303 78.1299 98.3803 77.9299C101.03 77.7299 103.78 77.7399 103.31 79.1199C102.83 80.4999 103.69 80.5299 99.2403 81.4799C94.7903 82.4299 90.3903 82.4499 89.4903 81.4799C88.5803 80.5099 88.1103 77.5499 90.5903 77.7699Z" fill="#808080"/>
<path opacity="0.5" fill-rule="evenodd" clip-rule="evenodd" d="M188.92 75.27C186.77 75.26 182.96 76.04 179.88 75.62C176.81 75.2 173.61 75.22 174.17 78.15C174.72 81.09 173.72 81.14 178.89 83.17C184.06 85.2 189.16 85.24 190.2 83.17C191.26 81.11 191.8 74.82 188.92 75.27Z" fill="#808080"/>
<path opacity="0.5" fill-rule="evenodd" clip-rule="evenodd" d="M188.05 77.7699C186.2 77.7599 182.91 78.1299 180.26 77.9299C177.61 77.7299 174.86 77.7399 175.33 79.1199C175.81 80.4999 174.95 80.5299 179.4 81.4799C183.86 82.4299 188.25 82.4499 189.15 81.4799C190.06 80.5099 190.52 77.5499 188.05 77.7699Z" fill="#808080"/>
<path fill-rule="evenodd" clip-rule="evenodd" d="M130.739 10.06C130.739 10.06 136.379 4.95 143.429 4.09C150.479 3.23 153.109 4.93999 154.029 4.97999C154.949 5.01999 149.339 -1.62 139.829 1.9C130.329 5.43 127.099 11.87 130.739 10.06Z" fill="#696969"/>
<path fill-rule="evenodd" clip-rule="evenodd" d="M159.64 16.6201C160.5 18.8301 162.59 21.5401 162.47 25.2201C162.35 28.9101 160.26 37.5101 163.08 45.1301C165.91 52.7501 170.45 61.1101 170.45 64.3001C170.45 67.5001 158.41 49.1801 158.53 39.8401C158.66 30.5101 162.1 25.9001 159.64 16.6201Z" fill="#555555"/>
<path fill-rule="evenodd" clip-rule="evenodd" d="M9.56002 182.67C7.97002 187.86 6.68 192.31 7.61 193.61C7.96 194.1 26.44 185.84 32.55 183.75C38.59 181.68 45.01 179.49 51.73 178.95C58.54 178.4 68.49 180.87 81.23 184.04C102.53 189.33 132.46 196.76 162.4 193.74C176.32 192.33 240.24 188.49 258.49 178.54L258.5 178.53C260.47 177.45 261.92 176.3 262.7 175.08C264.92 171.59 265.65 167.23 265.66 163.07C266.24 160.46 266.63 157.55 266.69 154.37C268.66 158.7 270.73 165.44 270.37 174.21C268.75 213.78 190 209.58 164.21 212.18C131.07 215.53 99.36 207.65 76.79 202.05C65.72 199.3 57.08 197.16 53.17 197.47C48.73 197.83 43.46 199.63 38.49 201.33C26.93 205.28 16.47 208.86 8.40001 201.28C4.33001 194.29 9.56002 182.67 9.56002 182.67Z" fill="url(#paint10_linear_318_91)"/>
<path fill-rule="evenodd" clip-rule="evenodd" d="M245.141 183.23C250.661 181.84 255.291 180.27 258.501 178.52L258.511 178.51C260.481 177.43 261.931 176.28 262.711 175.06C264.931 171.57 265.661 167.21 265.671 163.05C266.251 160.44 266.641 157.53 266.701 154.35C268.151 157.55 269.661 162.05 270.211 167.72C269.061 171.11 267.521 174.34 265.561 176.27C260.701 181.07 245.141 183.23 245.141 183.23Z" fill="#4D2D57"/>
<path fill-rule="evenodd" clip-rule="evenodd" d="M89.3106 183.56L80.4606 201.08C79.7506 202.48 79.6806 204.05 80.1406 205.44V205.45C80.6006 206.84 81.5806 208.06 82.9806 208.77L88.9906 211.81C90.3906 212.52 91.9606 212.59 93.3506 212.13H93.3606C94.7506 211.67 95.9706 210.69 96.6806 209.29L105.531 191.77C106.241 190.37 106.311 188.8 105.851 187.41V187.4C105.391 186.01 104.411 184.79 103.011 184.08L97.0006 181.04C95.6006 180.33 94.0306 180.26 92.6406 180.72H92.6306C91.2406 181.18 90.0206 182.16 89.3106 183.56ZM83.7906 202.76L92.6406 185.24C92.8906 184.75 93.3106 184.41 93.7906 184.24H93.8006C94.2806 184.08 94.8306 184.11 95.3206 184.36L101.331 187.4C101.821 187.65 102.161 188.07 102.331 188.55V188.56C102.491 189.04 102.461 189.59 102.211 190.08L93.3606 207.6C93.1106 208.09 92.6906 208.43 92.2106 208.6H92.2006C91.7206 208.76 91.1706 208.73 90.6806 208.48L84.6706 205.44C84.1806 205.19 83.8406 204.77 83.6706 204.29V204.28C83.5106 203.79 83.5406 203.25 83.7906 202.76Z" fill="#989898"/>
<path fill-rule="evenodd" clip-rule="evenodd" d="M91.9006 184.5C92.2106 183.89 91.9606 183.14 91.3506 182.83C90.7406 182.52 89.9906 182.77 89.6806 183.38L81.0106 200.53C79.4406 203.63 79.8806 206.98 83.4906 208.71C84.1106 209.01 84.8406 208.75 85.1406 208.13C85.4406 207.51 85.1806 206.78 84.5606 206.48C82.2606 205.38 82.6006 203.16 82.7206 202.65L91.9006 184.5Z" fill="#B2B2B2"/>
<path fill-rule="evenodd" clip-rule="evenodd" d="M92.3608 185.8L83.7908 202.76C83.5408 203.25 83.5208 203.8 83.6708 204.28V204.29C83.6908 204.35 83.7108 204.41 83.7408 204.46C86.7708 205.67 89.8408 206.9 92.9608 208.14C93.1208 207.99 93.2608 207.81 93.3608 207.6L102.211 190.08C102.301 189.91 102.351 189.73 102.391 189.56C102.451 189.22 102.431 188.88 102.331 188.56V188.55C102.171 188.07 101.821 187.64 101.331 187.4L95.3208 184.36C94.8308 184.11 94.2808 184.09 93.8008 184.24H93.7908C93.3108 184.4 92.8808 184.75 92.6408 185.24L92.3608 185.8Z" fill="url(#paint11_linear_318_91)"/>
<defs>
<linearGradient id="paint0_linear_318_91" x1="39.1881" y1="147.719" x2="8.5364" y2="145.792" gradientUnits="userSpaceOnUse">
<stop stop-color="#151A1D"/>
<stop offset="0.5" stop-color="#383C3D"/>
<stop offset="1"/>
</linearGradient>
<linearGradient id="paint1_linear_318_91" x1="139.417" y1="197.27" x2="141.392" y2="77.0429" gradientUnits="userSpaceOnUse">
<stop stop-color="#A1101E"/>
<stop offset="1" stop-color="#EF4651"/>
</linearGradient>
<linearGradient id="paint2_linear_318_91" x1="140.565" y1="141.119" x2="139.762" y2="211.535" gradientUnits="userSpaceOnUse">
<stop stop-color="#EF4651"/>
<stop offset="1" stop-color="#A1101E"/>
</linearGradient>
<linearGradient id="paint3_linear_318_91" x1="50.4758" y1="58.1201" x2="36.3973" y2="135.27" gradientUnits="userSpaceOnUse">
<stop stop-color="#EF4651"/>
<stop offset="1" stop-color="#A1101E"/>
</linearGradient>
<linearGradient id="paint4_linear_318_91" x1="30.4406" y1="117.421" x2="11.974" y2="212.448" gradientUnits="userSpaceOnUse">
<stop stop-color="#EF4651"/>
<stop offset="1" stop-color="#A1101E"/>
</linearGradient>
<linearGradient id="paint5_linear_318_91" x1="230.271" y1="54.1332" x2="241.64" y2="135.451" gradientUnits="userSpaceOnUse">
<stop stop-color="#EF4651"/>
<stop offset="1" stop-color="#A1101E"/>
</linearGradient>
<linearGradient id="paint6_linear_318_91" x1="248.96" y1="117.421" x2="267.426" y2="212.447" gradientUnits="userSpaceOnUse">
<stop stop-color="#EF4651"/>
<stop offset="1" stop-color="#A1101E"/>
</linearGradient>
<linearGradient id="paint7_linear_318_91" x1="142.707" y1="23.4538" x2="139.25" y2="122.089" gradientUnits="userSpaceOnUse">
<stop stop-color="#4B4E4F"/>
<stop offset="0.45" stop-color="#5C5F60"/>
<stop offset="1" stop-color="#2A2E30"/>
</linearGradient>
<linearGradient id="paint8_linear_318_91" x1="182.153" y1="102.732" x2="184.237" y2="131.904" gradientUnits="userSpaceOnUse">
<stop stop-color="#7B7E7F"/>
<stop offset="0.3315" stop-color="#47494C"/>
<stop offset="0.6249" stop-color="#212125"/>
<stop offset="0.8574" stop-color="#09090E"/>
<stop offset="1" stop-color="#000005"/>
</linearGradient>
<linearGradient id="paint9_linear_318_91" x1="94.2875" y1="103.135" x2="96.1629" y2="131.88" gradientUnits="userSpaceOnUse">
<stop stop-color="#7B7E7F"/>
<stop offset="0.3315" stop-color="#47494C"/>
<stop offset="0.6249" stop-color="#212125"/>
<stop offset="0.8574" stop-color="#09090E"/>
<stop offset="1" stop-color="#000005"/>
</linearGradient>
<linearGradient id="paint10_linear_318_91" x1="190.943" y1="198.509" x2="50.6378" y2="145.912" gradientUnits="userSpaceOnUse">
<stop stop-color="#151A1D"/>
<stop offset="0.5" stop-color="#383C3D"/>
<stop offset="1"/>
</linearGradient>
<linearGradient id="paint11_linear_318_91" x1="95.9944" y1="197.457" x2="89.7529" y2="194.517" gradientUnits="userSpaceOnUse">
<stop stop-color="#151A1D"/>
<stop offset="0.45" stop-color="#383C3D"/>
<stop offset="1"/>
</linearGradient>
</defs>
</svg>
