<svg width="1118" height="1097" viewBox="0 0 1118 1097" fill="none" xmlns="http://www.w3.org/2000/svg">
<path d="M673.407 888.347C686.127 880.388 689.987 863.625 682.028 850.904C674.069 838.184 657.305 834.324 644.585 842.283C631.865 850.242 628.005 867.006 635.964 879.726C643.923 892.447 660.686 896.306 673.407 888.347Z" fill="#454545"/>
<path d="M669.589 865.326C669.589 859.506 664.869 854.796 659.059 854.796C653.239 854.796 648.529 859.516 648.529 865.326C648.529 871.146 653.249 875.856 659.059 875.856C664.869 875.866 669.589 871.146 669.589 865.326Z" fill="#5E696B"/>
<path d="M390.038 875.593C395.732 861.71 389.094 845.839 375.211 840.144C361.328 834.449 345.457 841.088 339.762 854.971C334.068 868.854 340.706 884.725 354.589 890.419C368.472 896.114 384.343 889.476 390.038 875.593Z" fill="#454545"/>
<path d="M375.441 865.326C375.441 859.506 370.721 854.796 364.911 854.796C359.101 854.796 354.381 859.516 354.381 865.326C354.381 871.146 359.101 875.856 364.911 875.856C370.721 875.856 375.441 871.146 375.441 865.326Z" fill="#5E696B"/>
<path d="M241.618 891.824C256.235 888.431 265.334 873.831 261.941 859.214C258.548 844.597 243.948 835.498 229.332 838.891C214.715 842.284 205.616 856.884 209.008 871.5C212.401 886.117 227.001 895.216 241.618 891.824Z" fill="#454545"/>
<path d="M237.864 875.641C243.536 874.355 247.091 868.715 245.806 863.043C244.52 857.371 238.879 853.816 233.207 855.101C227.536 856.387 223.98 862.028 225.266 867.7C226.552 873.372 232.192 876.927 237.864 875.641Z" fill="#5E696B"/>
<path d="M375.83 194.477C375.83 194.477 383.77 175.197 392.84 172.927C401.91 170.657 533.45 169.527 540.26 171.797C547.06 174.067 550.5 194.097 550.5 194.097L375.83 194.477Z" fill="#B5B5B5"/>
<path d="M442.48 856.426H246.43C212.5 856.426 185 828.926 185 794.996V255.526C185 221.596 212.5 194.096 246.43 194.096H442.49C476.42 194.096 553.92 221.596 553.92 255.526V794.986C553.91 828.916 476.41 856.426 442.48 856.426Z" fill="#498DF3"/>
<path d="M306.75 856.426H321.49C316.4 856.426 311.46 855.786 306.75 854.596V856.426Z" fill="#65E6D6"/>
<path d="M321.49 194.096H306.75V195.926C311.47 194.736 316.41 194.096 321.49 194.096Z" fill="#65E6D6"/>
<path d="M246.789 796.466V254.056C246.789 220.946 273.629 194.096 306.749 194.096H288.319C255.209 194.096 228.359 220.936 228.359 254.056V796.466C228.359 829.576 255.199 856.426 288.319 856.426H306.749C273.639 856.426 246.789 829.576 246.789 796.466Z" fill="#8E8C85"/>
<path d="M570.5 194.096H487.33C520.44 194.096 597.29 220.936 597.29 254.056V796.466C597.29 829.576 520.45 856.426 487.33 856.426H570.5C603.61 856.426 630.46 829.586 630.46 796.466V254.056C630.46 220.936 603.61 194.096 570.5 194.096Z" fill="#65E6D6"/>
<path d="M261.539 796.466V254.056C261.539 226.026 280.769 202.496 306.749 195.926V194.096C273.639 194.096 246.789 220.936 246.789 254.056V796.466C246.789 829.576 273.629 856.426 306.749 856.426V854.596C280.769 848.016 261.539 824.486 261.539 796.466Z" fill="#B5B5B5"/>
<path d="M632.81 856.426H386.75C352.82 856.426 325.32 828.926 325.32 794.996V255.526C325.32 221.596 352.82 194.096 386.75 194.096H632.81C666.74 194.096 694.24 221.596 694.24 255.526V794.986C694.24 828.916 666.74 856.426 632.81 856.426Z" fill="#6F9AFC"/>
<path d="M433.061 192.446C433.061 192.446 443.381 220.426 450.081 242.226C456.331 262.546 487.881 263.246 541.701 263.246C599.071 263.246 624.601 259.026 627.151 243.716C629.701 228.406 622.271 214.416 612.501 193.666L433.061 192.446Z" fill="#65717E"/>
<path d="M455.029 200.996C457.469 211.986 462.649 224.506 467.579 232.366C474.359 243.176 505.719 245.226 546.669 245.126C582.479 245.036 613.009 242.576 613.009 232.366C613.009 222.156 599.079 202.216 599.079 202.216L455.029 200.996Z" fill="#454545"/>
<path d="M488.15 241.856L485.44 46.1162H467.58L469.57 234.686C473.18 237.966 479.57 240.266 488.15 241.856Z" fill="#E5E5E5"/>
<path d="M590.49 242.936L590.04 46.1162H572.18L571.73 244.546C578.62 244.206 584.96 243.686 590.49 242.936Z" fill="#E5E5E5"/>
<path d="M485.439 46.1162H467.579C467.579 46.1162 463.549 8.51616 473.759 3.40616C483.969 -1.69384 572.849 -1.48384 586.869 6.89616C593.459 10.8362 590.039 46.1162 590.039 46.1162H572.179L570.999 25.2062L485.569 23.5562L485.439 46.1162Z" fill="#454545"/>
<path d="M255.15 316.946H220.44C215.31 316.946 211.15 312.786 211.15 307.646V280.876C211.15 275.746 215.31 271.576 220.44 271.576H255.15C260.28 271.576 264.44 275.736 264.44 280.876V307.646C264.44 312.786 260.28 316.946 255.15 316.946Z" fill="#A3A3A3"/>
<path d="M255.15 768.386H220.44C215.31 768.386 211.15 764.226 211.15 759.096V732.326C211.15 727.196 215.31 723.036 220.44 723.036H255.15C260.28 723.036 264.44 727.196 264.44 732.326V759.096C264.44 764.216 260.28 768.386 255.15 768.386Z" fill="#A3A3A3"/>
<path d="M246.6 316.946H211.89C206.76 316.946 202.6 312.786 202.6 307.646V280.876C202.6 275.746 206.76 271.576 211.89 271.576H246.6C251.73 271.576 255.9 275.736 255.9 280.876V307.646C255.9 312.786 251.73 316.946 246.6 316.946Z" fill="#B5B5B5"/>
<path d="M246.6 768.386H211.89C206.76 768.386 202.6 764.226 202.6 759.096V732.326C202.6 727.196 206.76 723.036 211.89 723.036H246.6C251.73 723.036 255.9 727.196 255.9 732.326V759.096C255.9 764.216 251.73 768.386 246.6 768.386Z" fill="#B5B5B5"/>
<path d="M230.99 750.236H220.78C217.96 750.236 215.68 747.956 215.68 745.136C215.68 742.316 217.96 740.036 220.78 740.036H230.99C233.81 740.036 236.09 742.316 236.09 745.136C236.09 747.956 233.81 750.236 230.99 750.236Z" fill="#8E8C85"/>
<path d="M227.65 583.146V600.156C227.65 600.156 245.59 599.586 250.12 599.586C254.66 599.586 255.79 612.056 267.13 612.056C278.47 612.056 283.01 595.046 283.01 575.766C283.01 556.486 283.01 473.706 283.01 460.096C283.01 446.486 273.94 437.416 266 438.546C258.06 439.676 253.53 445.346 253.53 445.346H228.58V457.816C228.58 457.816 251.09 457.816 256.76 474.826C262.43 491.836 262.43 581.426 252.22 582.556C242.01 583.706 227.65 583.146 227.65 583.146Z" fill="#65717E"/>
<path d="M283.01 575.766C283.01 556.486 283.01 473.706 283.01 460.096C283.01 446.486 273.94 437.416 266 438.546C264.34 438.786 262.83 439.226 261.48 439.766C264.18 440.286 270.77 443.476 271.67 462.356C272.8 486.166 272.8 597.296 269.4 604.106C266.98 608.946 261.7 609.196 258.85 608.936C260.85 610.716 263.45 612.046 267.14 612.046C278.47 612.056 283.01 595.046 283.01 575.766Z" fill="#454545"/>
<path d="M374.441 796.736C368.661 796.736 363.971 792.046 363.971 786.266V354.746C363.971 348.966 368.661 344.276 374.441 344.276C380.221 344.276 384.911 348.966 384.911 354.746V786.266C384.921 792.046 380.231 796.736 374.441 796.736Z" fill="#498DF3"/>
<path d="M431.37 796.736C425.59 796.736 420.9 792.046 420.9 786.266V354.746C420.9 348.966 425.59 344.276 431.37 344.276C437.15 344.276 441.84 348.966 441.84 354.746V786.266C441.84 792.046 437.15 796.736 431.37 796.736Z" fill="#498DF3"/>
<path d="M488.29 796.736C482.51 796.736 477.82 792.046 477.82 786.266V354.746C477.82 348.966 482.51 344.276 488.29 344.276C494.07 344.276 498.76 348.966 498.76 354.746V786.266C498.76 792.046 494.07 796.736 488.29 796.736Z" fill="#498DF3"/>
<path d="M545.21 796.736C539.43 796.736 534.74 792.046 534.74 786.266V354.746C534.74 348.966 539.43 344.276 545.21 344.276C550.99 344.276 555.68 348.966 555.68 354.746V786.266C555.68 792.046 550.99 796.736 545.21 796.736Z" fill="#498DF3"/>
<path d="M602.13 796.736C596.35 796.736 591.66 792.046 591.66 786.266V354.746C591.66 348.966 596.35 344.276 602.13 344.276C607.91 344.276 612.6 348.966 612.6 354.746V786.266C612.6 792.046 607.91 796.736 602.13 796.736Z" fill="#498DF3"/>
<path d="M659.05 796.736C653.27 796.736 648.58 792.046 648.58 786.266V354.746C648.58 348.966 653.27 344.276 659.05 344.276C664.83 344.276 669.52 348.966 669.52 354.746V786.266C669.52 792.046 664.84 796.736 659.05 796.736Z" fill="#498DF3"/>
<path d="M231.95 298.806H219.82C217.53 298.806 215.68 296.956 215.68 294.666V292.746C215.68 290.456 217.53 288.606 219.82 288.606H231.95C234.24 288.606 236.09 290.456 236.09 292.746V294.666C236.09 296.946 234.24 298.806 231.95 298.806Z" fill="#8E8C85"/>
<path d="M323.711 805.206C323.711 805.206 303.131 831.056 326.321 856.696L374.981 856.476L323.711 805.206Z" fill="#65717E"/>
<path d="M323.711 805.207C323.711 805.207 388.241 791.666 385.271 856.426C385.281 856.426 339.581 866.247 323.711 805.207Z" fill="#8E8C85"/>
<path d="M185.961 805.966C185.961 805.966 224.651 802.866 237.381 855.306C237.381 855.306 196.381 862.946 185.961 805.966Z" fill="#8E8C85"/>
<path d="M694.169 805.207C694.169 805.207 629.639 791.666 632.609 856.426C632.609 856.426 678.309 866.247 694.169 805.207Z" fill="#8E8C85"/>
<circle cx="66" cy="1032" r="65" fill="#CC0000"/>
<path d="M43.3807 1064H34.517L60.1534 994.182H68.8807L94.517 1064H85.6534L64.7898 1005.23H64.2443L43.3807 1064ZM46.6534 1036.73H82.3807V1044.23H46.6534V1036.73Z" fill="white"/>
<ellipse cx="91.6572" cy="88" rx="44.6572" ry="45" fill="#CC0000"/>
<path d="M77.2349 109H71.3258L88.4167 62.4545H94.2349L111.326 109H105.417L91.5076 69.8182H91.144L77.2349 109ZM79.4167 90.8182H103.235V95.8182H79.4167V90.8182Z" fill="white"/>
<circle cx="491" cy="1032" r="65" fill="#CC0000"/>
<path d="M519.214 1018H510.76C510.26 1015.57 509.385 1013.43 508.135 1011.59C506.908 1009.75 505.408 1008.2 503.635 1006.95C501.885 1005.68 499.942 1004.73 497.805 1004.09C495.669 1003.45 493.442 1003.14 491.124 1003.14C486.896 1003.14 483.067 1004.2 479.635 1006.34C476.226 1008.48 473.51 1011.62 471.487 1015.78C469.487 1019.94 468.487 1025.05 468.487 1031.09C468.487 1037.14 469.487 1042.24 471.487 1046.4C473.51 1050.56 476.226 1053.7 479.635 1055.84C483.067 1057.98 486.896 1059.05 491.124 1059.05C493.442 1059.05 495.669 1058.73 497.805 1058.09C499.942 1057.45 501.885 1056.51 503.635 1055.26C505.408 1053.99 506.908 1052.43 508.135 1050.59C509.385 1048.73 510.26 1046.59 510.76 1044.18H519.214C518.578 1047.75 517.419 1050.94 515.737 1053.76C514.055 1056.58 511.964 1058.98 509.464 1060.95C506.964 1062.91 504.158 1064.4 501.044 1065.42C497.953 1066.44 494.646 1066.95 491.124 1066.95C485.169 1066.95 479.874 1065.5 475.237 1062.59C470.601 1059.68 466.953 1055.55 464.294 1050.18C461.635 1044.82 460.305 1038.45 460.305 1031.09C460.305 1023.73 461.635 1017.36 464.294 1012C466.953 1006.64 470.601 1002.5 475.237 999.591C479.874 996.682 485.169 995.227 491.124 995.227C494.646 995.227 497.953 995.739 501.044 996.761C504.158 997.784 506.964 999.284 509.464 1001.26C511.964 1003.22 514.055 1005.6 515.737 1008.42C517.419 1011.22 518.578 1014.41 519.214 1018Z" fill="white"/>
<ellipse cx="484.343" cy="674" rx="44.6572" ry="45" fill="#CC0000"/>
<path d="M503.123 663.154H497.487C497.154 661.533 496.57 660.109 495.737 658.882C494.919 657.654 493.919 656.624 492.737 655.791C491.57 654.942 490.275 654.306 488.851 653.882C487.426 653.457 485.942 653.245 484.396 653.245C481.578 653.245 479.025 653.957 476.737 655.382C474.464 656.806 472.654 658.904 471.305 661.677C469.972 664.45 469.305 667.851 469.305 671.882C469.305 675.912 469.972 679.313 471.305 682.086C472.654 684.859 474.464 686.957 476.737 688.382C479.025 689.806 481.578 690.518 484.396 690.518C485.942 690.518 487.426 690.306 488.851 689.882C490.275 689.457 491.57 688.829 492.737 687.995C493.919 687.147 494.919 686.109 495.737 684.882C496.57 683.639 497.154 682.215 497.487 680.609H503.123C502.699 682.988 501.926 685.116 500.805 686.995C499.684 688.874 498.29 690.472 496.623 691.791C494.957 693.094 493.085 694.086 491.01 694.768C488.949 695.45 486.745 695.791 484.396 695.791C480.426 695.791 476.896 694.821 473.805 692.882C470.714 690.942 468.282 688.185 466.51 684.609C464.737 681.033 463.851 676.791 463.851 671.882C463.851 666.972 464.737 662.73 466.51 659.154C468.282 655.579 470.714 652.821 473.805 650.882C476.896 648.942 480.426 647.972 484.396 647.972C486.745 647.972 488.949 648.313 491.01 648.995C493.085 649.677 494.957 650.677 496.623 651.995C498.29 653.298 499.684 654.889 500.805 656.768C501.926 658.632 502.699 660.76 503.123 663.154Z" fill="white"/>
<circle cx="278" cy="1032" r="65" fill="#CC0000"/>
<path d="M255.736 1066V996.182H280.145C285.009 996.182 289.02 997.023 292.179 998.705C295.338 1000.36 297.69 1002.6 299.236 1005.42C300.781 1008.22 301.554 1011.32 301.554 1014.73C301.554 1017.73 301.02 1020.2 299.952 1022.16C298.906 1024.11 297.52 1025.66 295.793 1026.8C294.088 1027.93 292.236 1028.77 290.236 1029.32V1030C292.372 1030.14 294.52 1030.89 296.679 1032.25C298.838 1033.61 300.645 1035.57 302.099 1038.11C303.554 1040.66 304.281 1043.77 304.281 1047.45C304.281 1050.95 303.486 1054.1 301.895 1056.9C300.304 1059.69 297.793 1061.91 294.361 1063.55C290.929 1065.18 286.463 1066 280.963 1066H255.736ZM264.19 1058.5H280.963C286.486 1058.5 290.406 1057.43 292.724 1055.3C295.065 1053.14 296.236 1050.52 296.236 1047.45C296.236 1045.09 295.634 1042.91 294.429 1040.91C293.224 1038.89 291.509 1037.27 289.281 1036.07C287.054 1034.84 284.418 1034.23 281.372 1034.23H264.19V1058.5ZM264.19 1026.86H279.872C282.418 1026.86 284.713 1026.36 286.759 1025.36C288.827 1024.36 290.463 1022.95 291.668 1021.14C292.895 1019.32 293.509 1017.18 293.509 1014.73C293.509 1011.66 292.44 1009.06 290.304 1006.92C288.168 1004.76 284.781 1003.68 280.145 1003.68H264.19V1026.86Z" fill="white"/>
<circle cx="226" cy="669" r="45" fill="#CC0000"/>
<path d="M211.169 691.154V644.609H227.442C230.684 644.609 233.359 645.169 235.465 646.291C237.571 647.397 239.139 648.889 240.169 650.768C241.199 652.632 241.715 654.7 241.715 656.972C241.715 658.972 241.359 660.624 240.646 661.927C239.949 663.23 239.025 664.26 237.874 665.018C236.737 665.776 235.502 666.336 234.169 666.7V667.154C235.593 667.245 237.025 667.745 238.465 668.654C239.904 669.563 241.109 670.866 242.078 672.563C243.048 674.26 243.533 676.336 243.533 678.791C243.533 681.124 243.002 683.222 241.942 685.086C240.881 686.95 239.207 688.427 236.919 689.518C234.631 690.609 231.654 691.154 227.987 691.154H211.169ZM216.805 686.154H227.987C231.669 686.154 234.283 685.442 235.828 684.018C237.389 682.579 238.169 680.836 238.169 678.791C238.169 677.215 237.768 675.76 236.965 674.427C236.162 673.079 235.018 672.003 233.533 671.2C232.048 670.382 230.29 669.972 228.26 669.972H216.805V686.154ZM216.805 665.063H227.26C228.957 665.063 230.487 664.73 231.851 664.063C233.23 663.397 234.321 662.457 235.124 661.245C235.942 660.033 236.351 658.609 236.351 656.972C236.351 654.927 235.639 653.192 234.215 651.768C232.79 650.329 230.533 649.609 227.442 649.609H216.805V665.063Z" fill="white"/>
<path d="M169.678 1055.23V1010.23H177.314V1055.23H169.678ZM150.996 1036.55V1028.91H195.996V1036.55H150.996Z" fill="black"/>
<path d="M596.933 1026.32V1018.95H638.933V1026.32H596.933ZM596.933 1046.5V1039.14H638.933V1046.5H596.933ZM700.601 1013.45V1060H690.76V1022.8H690.487L679.828 1029.48V1020.75L691.351 1013.45H700.601ZM729.527 1060.64C727.133 1060.62 724.822 1060.22 722.595 1059.43C720.383 1058.64 718.398 1057.36 716.641 1055.59C714.883 1053.82 713.489 1051.47 712.459 1048.55C711.444 1045.62 710.936 1042.03 710.936 1037.77C710.951 1033.86 711.398 1030.37 712.277 1027.3C713.171 1024.2 714.444 1021.58 716.095 1019.43C717.762 1017.28 719.754 1015.64 722.072 1014.52C724.391 1013.39 726.989 1012.82 729.868 1012.82C732.974 1012.82 735.716 1013.42 738.095 1014.64C740.474 1015.83 742.383 1017.46 743.822 1019.52C745.277 1021.58 746.156 1023.89 746.459 1026.45H736.754C736.375 1024.83 735.58 1023.56 734.368 1022.64C733.156 1021.71 731.656 1021.25 729.868 1021.25C726.838 1021.25 724.535 1022.57 722.959 1025.2C721.398 1027.84 720.603 1031.42 720.572 1035.95H720.891C721.588 1034.58 722.527 1033.4 723.709 1032.43C724.906 1031.45 726.262 1030.7 727.777 1030.18C729.307 1029.65 730.921 1029.39 732.618 1029.39C735.375 1029.39 737.83 1030.04 739.982 1031.34C742.133 1032.63 743.83 1034.4 745.072 1036.66C746.315 1038.92 746.936 1041.5 746.936 1044.41C746.936 1047.56 746.201 1050.36 744.732 1052.82C743.277 1055.27 741.239 1057.2 738.618 1058.59C736.012 1059.97 732.982 1060.65 729.527 1060.64ZM729.482 1052.91C730.997 1052.91 732.353 1052.55 733.55 1051.82C734.747 1051.09 735.686 1050.11 736.368 1048.86C737.05 1047.62 737.391 1046.23 737.391 1044.68C737.391 1043.14 737.05 1041.75 736.368 1040.52C735.701 1039.3 734.777 1038.32 733.595 1037.59C732.413 1036.86 731.065 1036.5 729.55 1036.5C728.413 1036.5 727.36 1036.71 726.391 1037.14C725.436 1037.56 724.595 1038.15 723.868 1038.91C723.156 1039.67 722.595 1040.55 722.186 1041.55C721.777 1042.53 721.572 1043.58 721.572 1044.7C721.572 1046.2 721.913 1047.58 722.595 1048.82C723.292 1050.06 724.232 1051.05 725.413 1051.8C726.61 1052.54 727.966 1052.91 729.482 1052.91ZM772.163 1061.02C768.254 1061.01 764.891 1060.05 762.072 1058.14C759.269 1056.23 757.11 1053.46 755.595 1049.84C754.095 1046.22 753.353 1041.86 753.368 1036.77C753.368 1031.7 754.118 1027.37 755.618 1023.8C757.133 1020.22 759.292 1017.5 762.095 1015.64C764.913 1013.76 768.269 1012.82 772.163 1012.82C776.057 1012.82 779.406 1013.76 782.209 1015.64C785.027 1017.52 787.194 1020.24 788.709 1023.82C790.224 1027.38 790.974 1031.7 790.959 1036.77C790.959 1041.88 790.201 1046.24 788.686 1049.86C787.186 1053.48 785.035 1056.25 782.232 1058.16C779.429 1060.07 776.072 1061.02 772.163 1061.02ZM772.163 1052.86C774.83 1052.86 776.959 1051.52 778.55 1048.84C780.141 1046.16 780.929 1042.14 780.913 1036.77C780.913 1033.24 780.55 1030.3 779.822 1027.95C779.11 1025.61 778.095 1023.84 776.777 1022.66C775.474 1021.48 773.936 1020.89 772.163 1020.89C769.512 1020.89 767.391 1022.21 765.8 1024.86C764.209 1027.52 763.406 1031.48 763.391 1036.77C763.391 1040.35 763.747 1043.33 764.459 1045.73C765.186 1048.11 766.209 1049.89 767.527 1051.09C768.845 1052.27 770.391 1052.86 772.163 1052.86ZM813.839 1060.68C810.264 1060.68 807.188 1059.92 804.612 1058.41C802.052 1056.88 800.082 1054.76 798.703 1052.05C797.339 1049.33 796.658 1046.21 796.658 1042.68C796.658 1039.11 797.347 1035.97 798.726 1033.27C800.12 1030.56 802.097 1028.45 804.658 1026.93C807.218 1025.4 810.264 1024.64 813.794 1024.64C816.839 1024.64 819.506 1025.19 821.794 1026.3C824.082 1027.4 825.893 1028.95 827.226 1030.95C828.559 1032.95 829.294 1035.3 829.43 1038H820.294C820.036 1036.26 819.355 1034.86 818.249 1033.8C817.158 1032.72 815.726 1032.18 813.953 1032.18C812.453 1032.18 811.143 1032.59 810.021 1033.41C808.915 1034.21 808.052 1035.39 807.43 1036.93C806.809 1038.48 806.499 1040.35 806.499 1042.55C806.499 1044.77 806.802 1046.67 807.408 1048.23C808.029 1049.79 808.9 1050.98 810.021 1051.8C811.143 1052.61 812.453 1053.02 813.953 1053.02C815.059 1053.02 816.052 1052.8 816.93 1052.34C817.824 1051.89 818.559 1051.23 819.135 1050.36C819.726 1049.48 820.112 1048.43 820.294 1047.2H829.43C829.279 1049.87 828.552 1052.22 827.249 1054.25C825.961 1056.27 824.18 1057.84 821.908 1058.98C819.635 1060.11 816.946 1060.68 813.839 1060.68ZM835.629 1060V1025.09H844.857V1031.25H845.266C845.993 1029.2 847.205 1027.59 848.902 1026.41C850.599 1025.23 852.629 1024.64 854.993 1024.64C857.387 1024.64 859.425 1025.23 861.107 1026.43C862.788 1027.61 863.91 1029.22 864.47 1031.25H864.834C865.546 1029.25 866.834 1027.65 868.697 1026.45C870.576 1025.24 872.796 1024.64 875.357 1024.64C878.614 1024.64 881.258 1025.67 883.288 1027.75C885.334 1029.81 886.357 1032.73 886.357 1036.52V1060H876.697V1038.43C876.697 1036.49 876.182 1035.04 875.152 1034.07C874.122 1033.1 872.834 1032.61 871.288 1032.61C869.531 1032.61 868.16 1033.17 867.175 1034.3C866.19 1035.4 865.697 1036.86 865.697 1038.68V1060H856.311V1038.23C856.311 1036.52 855.819 1035.15 854.834 1034.14C853.864 1033.12 852.584 1032.61 850.993 1032.61C849.917 1032.61 848.947 1032.89 848.084 1033.43C847.235 1033.96 846.561 1034.71 846.061 1035.68C845.561 1036.64 845.311 1037.76 845.311 1039.05V1060H835.629ZM907.577 1052.06H961.273V1058.98H907.577V1052.06ZM930.169 1040.61H938.617V1055.58H930.169V1040.61ZM930.105 1018.72H937.593V1020C937.593 1022.86 937.038 1025.55 935.929 1028.06C934.82 1030.54 933.177 1032.78 931.001 1034.78C928.868 1036.79 926.244 1038.47 923.129 1039.84C920.014 1041.21 916.409 1042.14 912.313 1042.66L909.241 1035.87C912.868 1035.45 915.982 1034.72 918.585 1033.7C921.23 1032.63 923.385 1031.35 925.049 1029.86C926.756 1028.36 928.014 1026.78 928.825 1025.12C929.678 1023.41 930.105 1021.71 930.105 1020V1018.72ZM931.193 1018.72H938.681V1020C938.681 1021.71 939.086 1023.41 939.897 1025.12C940.75 1026.78 942.009 1028.36 943.673 1029.86C945.38 1031.35 947.556 1032.63 950.201 1033.7C952.846 1034.72 955.961 1035.45 959.545 1035.87L956.473 1042.66C952.377 1042.14 948.772 1041.21 945.657 1039.84C942.542 1038.47 939.897 1036.79 937.721 1034.78C935.588 1032.78 933.966 1030.54 932.857 1028.06C931.748 1025.55 931.193 1022.86 931.193 1020V1018.72ZM912.121 1014.43H956.601V1021.22H912.121V1014.43ZM930.169 1007.2H938.617V1017.18H930.169V1007.2ZM968.884 1012.26H994.484V1019.04H968.884V1012.26ZM976.564 1029.22H984.884V1049.38H976.564V1029.22ZM991.028 1012.26H999.476V1017.12C999.476 1019.98 999.391 1023.24 999.22 1026.91C999.092 1030.58 998.623 1034.89 997.812 1039.84L989.492 1039.14C990.26 1034.4 990.708 1030.26 990.836 1026.72C990.964 1023.14 991.028 1019.94 991.028 1017.12V1012.26ZM1004.53 1006.37H1012.98V1065.63H1004.53V1006.37ZM1010.55 1030.18H1020.98V1037.22H1010.55V1030.18ZM966.708 1053.73L965.94 1046.82C969.396 1046.82 973.151 1046.79 977.204 1046.75C981.3 1046.67 985.439 1046.52 989.62 1046.3C993.844 1046.05 997.919 1045.69 1001.84 1045.22L1002.23 1051.42C998.217 1052.06 994.121 1052.55 989.94 1052.9C985.801 1053.24 981.748 1053.47 977.78 1053.6C973.812 1053.69 970.121 1053.73 966.708 1053.73Z" fill="black"/>
<path d="M169.678 1055.23V1010.23H177.314V1055.23H169.678ZM150.996 1036.55V1028.91H195.996V1036.55H150.996Z" fill="black"/>
<path d="M378.678 1055.23V1010.23H386.314V1055.23H378.678ZM359.996 1036.55V1028.91H404.996V1036.55H359.996Z" fill="black"/>
<path d="M91.6825 169.5L77.2489 194.5L106.116 194.5L91.6825 169.5ZM89.9188 858.767C90.8951 859.743 92.478 859.743 93.4543 858.767L109.364 842.857C110.34 841.881 110.34 840.298 109.364 839.321C108.388 838.345 106.805 838.345 105.829 839.321L91.6865 853.464L77.5443 839.322C76.568 838.345 74.9851 838.345 74.0088 839.322C73.0325 840.298 73.0325 841.881 74.0088 842.857L89.9188 858.767ZM89.1825 175.496L89.1825 179.493L94.1825 179.493L94.1825 175.495L89.1825 175.496ZM89.1826 183.49L89.1826 187.487L94.1826 187.487L94.1826 183.49L89.1826 183.49ZM89.1826 191.484L89.1826 195.481L94.1826 195.481L94.1826 191.484L89.1826 191.484ZM89.1827 199.478L89.1827 203.475L94.1827 203.475L94.1827 199.478L89.1827 199.478ZM89.1827 207.472L89.1827 211.469L94.1827 211.469L94.1827 207.472L89.1827 207.472ZM89.1828 215.466L89.1828 219.463L94.1828 219.463L94.1828 215.466L89.1828 215.466ZM89.1828 223.461L89.1828 227.458L94.1828 227.458L94.1828 223.461L89.1828 223.461ZM89.1828 231.455L89.1829 235.452L94.1829 235.452L94.1828 231.455L89.1828 231.455ZM89.1829 239.449L89.1829 243.446L94.1829 243.446L94.1829 239.449L89.1829 239.449ZM89.1829 247.443L89.183 251.44L94.183 251.44L94.1829 247.443L89.1829 247.443ZM89.183 255.437L89.183 259.434L94.183 259.434L94.183 255.437L89.183 255.437ZM89.183 263.431L89.1831 267.429L94.1831 267.429L94.183 263.431L89.183 263.431ZM89.1831 271.426L89.1831 275.423L94.1831 275.423L94.1831 271.426L89.1831 271.426ZM89.1831 279.42L89.1832 283.417L94.1832 283.417L94.1831 279.42L89.1831 279.42ZM89.1832 287.414L89.1832 291.411L94.1832 291.411L94.1832 287.414L89.1832 287.414ZM89.1832 295.408L89.1832 299.405L94.1833 299.405L94.1832 295.408L89.1832 295.408ZM89.1833 303.402L89.1833 307.399L94.1833 307.399L94.1833 303.402L89.1833 303.402ZM89.1833 311.396L89.1833 315.394L94.1833 315.394L94.1833 311.396L89.1833 311.396ZM89.1834 319.391L89.1834 323.388L94.1834 323.388L94.1834 319.391L89.1834 319.391ZM89.1834 327.385L89.1834 331.382L94.1834 331.382L94.1834 327.385L89.1834 327.385ZM89.1835 335.379L89.1835 339.376L94.1835 339.376L94.1835 335.379L89.1835 335.379ZM89.1835 343.373L89.1835 347.37L94.1835 347.37L94.1835 343.373L89.1835 343.373ZM89.1836 351.367L89.1836 355.364L94.1836 355.364L94.1836 351.367L89.1836 351.367ZM89.1836 359.362L89.1836 363.359L94.1836 363.359L94.1836 359.361L89.1836 359.362ZM89.1837 367.356L89.1837 371.353L94.1837 371.353L94.1837 367.356L89.1837 367.356ZM89.1837 375.35L89.1837 379.347L94.1837 379.347L94.1837 375.35L89.1837 375.35ZM89.1837 383.344L89.1838 387.341L94.1838 387.341L94.1837 383.344L89.1837 383.344ZM89.1838 391.338L89.1838 395.335L94.1838 395.335L94.1838 391.338L89.1838 391.338ZM89.1838 399.332L89.1839 403.329L94.1839 403.329L94.1838 399.332L89.1838 399.332ZM89.1839 407.327L89.1839 411.324L94.1839 411.324L94.1839 407.327L89.1839 407.327ZM89.1839 415.321L89.184 419.318L94.184 419.318L94.1839 415.321L89.1839 415.321ZM89.184 423.315L89.184 427.312L94.184 427.312L94.184 423.315L89.184 423.315ZM89.184 431.309L89.1841 435.306L94.1841 435.306L94.184 431.309L89.184 431.309ZM89.1841 439.303L89.1841 443.3L94.1841 443.3L94.1841 439.303L89.1841 439.303ZM89.1841 447.297L89.1842 451.295L94.1842 451.295L94.1841 447.297L89.1841 447.297ZM89.1842 455.292L89.1842 459.289L94.1842 459.289L94.1842 455.292L89.1842 455.292ZM89.1842 463.286L89.1842 467.283L94.1842 467.283L94.1842 463.286L89.1842 463.286ZM89.1843 471.28L89.1843 475.277L94.1843 475.277L94.1843 471.28L89.1843 471.28ZM89.1843 479.274L89.1843 483.271L94.1843 483.271L94.1843 479.274L89.1843 479.274ZM89.1844 487.269L89.1844 491.266L94.1844 491.266L94.1844 487.268L89.1844 487.269ZM89.1844 495.263L89.1844 499.26L94.1844 499.26L94.1844 495.263L89.1844 495.263ZM89.1845 503.257L89.1845 507.254L94.1845 507.254L94.1845 503.257L89.1845 503.257ZM89.1845 511.251L89.1845 515.248L94.1845 515.248L94.1845 511.251L89.1845 511.251ZM89.1846 519.245L89.1846 523.242L94.1846 523.242L94.1846 519.245L89.1846 519.245ZM89.1846 527.239L89.1846 531.237L94.1846 531.237L94.1846 527.239L89.1846 527.239ZM89.1847 535.234L89.1847 539.231L94.1847 539.231L94.1847 535.234L89.1847 535.234ZM89.1847 543.228L89.1847 547.225L94.1847 547.225L94.1847 543.228L89.1847 543.228ZM89.1847 551.222L89.1848 555.219L94.1848 555.219L94.1847 551.222L89.1847 551.222ZM89.1848 559.216L89.1848 563.213L94.1848 563.213L94.1848 559.216L89.1848 559.216ZM89.1848 567.211L89.1849 571.208L94.1849 571.208L94.1848 567.21L89.1848 567.211ZM89.1849 575.205L89.1849 579.202L94.1849 579.202L94.1849 575.205L89.1849 575.205ZM89.1849 583.199L89.185 587.196L94.185 587.196L94.1849 583.199L89.1849 583.199ZM89.185 591.193L89.185 595.19L94.185 595.19L94.185 591.193L89.185 591.193ZM89.185 599.187L89.1851 603.184L94.1851 603.184L94.185 599.187L89.185 599.187ZM89.1851 607.182L89.1851 611.179L94.1851 611.179L94.1851 607.181L89.1851 607.182ZM89.1851 615.176L89.1852 619.173L94.1852 619.173L94.1851 615.176L89.1851 615.176ZM89.1852 623.17L89.1852 627.167L94.1852 627.167L94.1852 623.17L89.1852 623.17ZM89.1852 631.164L89.1852 635.161L94.1852 635.161L94.1852 631.164L89.1852 631.164ZM89.1853 639.158L89.1853 643.155L94.1853 643.155L94.1853 639.158L89.1853 639.158ZM89.1853 647.153L89.1853 651.15L94.1853 651.15L94.1853 647.153L89.1853 647.153ZM89.1854 655.147L89.1854 659.144L94.1854 659.144L94.1854 655.147L89.1854 655.147ZM89.1854 663.141L89.1854 667.138L94.1854 667.138L94.1854 663.141L89.1854 663.141ZM89.1855 671.135L89.1855 675.132L94.1855 675.132L94.1855 671.135L89.1855 671.135ZM89.1855 679.129L89.1855 683.126L94.1855 683.126L94.1855 679.129L89.1855 679.129ZM89.1856 687.123L89.1856 691.121L94.1856 691.121L94.1856 687.124L89.1856 687.123ZM89.1856 695.118L89.1856 699.115L94.1856 699.115L94.1856 695.118L89.1856 695.118ZM89.1857 703.112L89.1857 707.109L94.1857 707.109L94.1857 703.112L89.1857 703.112ZM89.1857 711.106L89.1857 715.103L94.1857 715.103L94.1857 711.106L89.1857 711.106ZM89.1857 719.1L89.1858 723.097L94.1858 723.097L94.1857 719.1L89.1857 719.1ZM89.1858 727.094L89.1858 731.091L94.1858 731.091L94.1858 727.094L89.1858 727.094ZM89.1858 735.088L89.1859 739.085L94.1859 739.085L94.1858 735.088L89.1858 735.088ZM89.1859 743.082L89.1859 747.08L94.1859 747.08L94.1859 743.082L89.1859 743.082ZM89.1859 751.077L89.186 755.074L94.186 755.074L94.1859 751.077L89.1859 751.077ZM89.186 759.071L89.186 763.068L94.186 763.068L94.186 759.071L89.186 759.071ZM89.186 767.065L89.1861 771.062L94.1861 771.062L94.186 767.065L89.186 767.065ZM89.1861 775.059L89.1861 779.056L94.1861 779.056L94.1861 775.059L89.1861 775.059ZM89.1861 783.053L89.1862 787.05L94.1862 787.05L94.1861 783.053L89.1861 783.053ZM89.1862 791.047L89.1862 795.044L94.1862 795.044L94.1862 791.047L89.1862 791.047ZM89.1862 799.041L89.1862 803.039L94.1862 803.038L94.1862 799.041L89.1862 799.041ZM89.1863 807.036L89.1863 811.033L94.1863 811.033L94.1863 807.036L89.1863 807.036ZM89.1863 815.03L89.1863 819.027L94.1863 819.027L94.1863 815.03L89.1863 815.03ZM89.1864 823.024L89.1864 827.021L94.1864 827.021L94.1864 823.024L89.1864 823.024ZM89.1864 831.018L89.1864 835.015L94.1864 835.015L94.1864 831.018L89.1864 831.018ZM89.1865 839.012L89.1865 843.009L94.1865 843.009L94.1865 839.012L89.1865 839.012ZM89.1865 847.006L89.1865 851.003L94.1865 851.003L94.1865 847.006L89.1865 847.006ZM89.1866 855L89.1866 856.999L94.1866 856.999L94.1866 855L89.1866 855ZM91.6825 169.5L77.2489 194.5L106.116 194.5L91.6825 169.5ZM89.9188 858.767C90.8951 859.743 92.478 859.743 93.4543 858.767L109.364 842.857C110.34 841.881 110.34 840.298 109.364 839.321C108.388 838.345 106.805 838.345 105.829 839.321L91.6865 853.464L77.5443 839.322C76.568 838.345 74.9851 838.345 74.0088 839.322C73.0325 840.298 73.0325 841.881 74.0088 842.857L89.9188 858.767ZM89.1825 175.496L89.1825 179.493L94.1825 179.493L94.1825 175.495L89.1825 175.496ZM89.1826 183.49L89.1826 187.487L94.1826 187.487L94.1826 183.49L89.1826 183.49ZM89.1826 191.484L89.1826 195.481L94.1826 195.481L94.1826 191.484L89.1826 191.484ZM89.1827 199.478L89.1827 203.475L94.1827 203.475L94.1827 199.478L89.1827 199.478ZM89.1827 207.472L89.1827 211.469L94.1827 211.469L94.1827 207.472L89.1827 207.472ZM89.1828 215.466L89.1828 219.463L94.1828 219.463L94.1828 215.466L89.1828 215.466ZM89.1828 223.461L89.1828 227.458L94.1828 227.458L94.1828 223.461L89.1828 223.461ZM89.1828 231.455L89.1829 235.452L94.1829 235.452L94.1828 231.455L89.1828 231.455ZM89.1829 239.449L89.1829 243.446L94.1829 243.446L94.1829 239.449L89.1829 239.449ZM89.1829 247.443L89.183 251.44L94.183 251.44L94.1829 247.443L89.1829 247.443ZM89.183 255.437L89.183 259.434L94.183 259.434L94.183 255.437L89.183 255.437ZM89.183 263.431L89.1831 267.429L94.1831 267.429L94.183 263.431L89.183 263.431ZM89.1831 271.426L89.1831 275.423L94.1831 275.423L94.1831 271.426L89.1831 271.426ZM89.1831 279.42L89.1832 283.417L94.1832 283.417L94.1831 279.42L89.1831 279.42ZM89.1832 287.414L89.1832 291.411L94.1832 291.411L94.1832 287.414L89.1832 287.414ZM89.1832 295.408L89.1832 299.405L94.1833 299.405L94.1832 295.408L89.1832 295.408ZM89.1833 303.402L89.1833 307.399L94.1833 307.399L94.1833 303.402L89.1833 303.402ZM89.1833 311.396L89.1833 315.394L94.1833 315.394L94.1833 311.396L89.1833 311.396ZM89.1834 319.391L89.1834 323.388L94.1834 323.388L94.1834 319.391L89.1834 319.391ZM89.1834 327.385L89.1834 331.382L94.1834 331.382L94.1834 327.385L89.1834 327.385ZM89.1835 335.379L89.1835 339.376L94.1835 339.376L94.1835 335.379L89.1835 335.379ZM89.1835 343.373L89.1835 347.37L94.1835 347.37L94.1835 343.373L89.1835 343.373ZM89.1836 351.367L89.1836 355.364L94.1836 355.364L94.1836 351.367L89.1836 351.367ZM89.1836 359.362L89.1836 363.359L94.1836 363.359L94.1836 359.361L89.1836 359.362ZM89.1837 367.356L89.1837 371.353L94.1837 371.353L94.1837 367.356L89.1837 367.356ZM89.1837 375.35L89.1837 379.347L94.1837 379.347L94.1837 375.35L89.1837 375.35ZM89.1837 383.344L89.1838 387.341L94.1838 387.341L94.1837 383.344L89.1837 383.344ZM89.1838 391.338L89.1838 395.335L94.1838 395.335L94.1838 391.338L89.1838 391.338ZM89.1838 399.332L89.1839 403.329L94.1839 403.329L94.1838 399.332L89.1838 399.332ZM89.1839 407.327L89.1839 411.324L94.1839 411.324L94.1839 407.327L89.1839 407.327ZM89.1839 415.321L89.184 419.318L94.184 419.318L94.1839 415.321L89.1839 415.321ZM89.184 423.315L89.184 427.312L94.184 427.312L94.184 423.315L89.184 423.315ZM89.184 431.309L89.1841 435.306L94.1841 435.306L94.184 431.309L89.184 431.309ZM89.1841 439.303L89.1841 443.3L94.1841 443.3L94.1841 439.303L89.1841 439.303ZM89.1841 447.297L89.1842 451.295L94.1842 451.295L94.1841 447.297L89.1841 447.297ZM89.1842 455.292L89.1842 459.289L94.1842 459.289L94.1842 455.292L89.1842 455.292ZM89.1842 463.286L89.1842 467.283L94.1842 467.283L94.1842 463.286L89.1842 463.286ZM89.1843 471.28L89.1843 475.277L94.1843 475.277L94.1843 471.28L89.1843 471.28ZM89.1843 479.274L89.1843 483.271L94.1843 483.271L94.1843 479.274L89.1843 479.274ZM89.1844 487.269L89.1844 491.266L94.1844 491.266L94.1844 487.268L89.1844 487.269ZM89.1844 495.263L89.1844 499.26L94.1844 499.26L94.1844 495.263L89.1844 495.263ZM89.1845 503.257L89.1845 507.254L94.1845 507.254L94.1845 503.257L89.1845 503.257ZM89.1845 511.251L89.1845 515.248L94.1845 515.248L94.1845 511.251L89.1845 511.251ZM89.1846 519.245L89.1846 523.242L94.1846 523.242L94.1846 519.245L89.1846 519.245ZM89.1846 527.239L89.1846 531.237L94.1846 531.237L94.1846 527.239L89.1846 527.239ZM89.1847 535.234L89.1847 539.231L94.1847 539.231L94.1847 535.234L89.1847 535.234ZM89.1847 543.228L89.1847 547.225L94.1847 547.225L94.1847 543.228L89.1847 543.228ZM89.1847 551.222L89.1848 555.219L94.1848 555.219L94.1847 551.222L89.1847 551.222ZM89.1848 559.216L89.1848 563.213L94.1848 563.213L94.1848 559.216L89.1848 559.216ZM89.1848 567.211L89.1849 571.208L94.1849 571.208L94.1848 567.21L89.1848 567.211ZM89.1849 575.205L89.1849 579.202L94.1849 579.202L94.1849 575.205L89.1849 575.205ZM89.1849 583.199L89.185 587.196L94.185 587.196L94.1849 583.199L89.1849 583.199ZM89.185 591.193L89.185 595.19L94.185 595.19L94.185 591.193L89.185 591.193ZM89.185 599.187L89.1851 603.184L94.1851 603.184L94.185 599.187L89.185 599.187ZM89.1851 607.182L89.1851 611.179L94.1851 611.179L94.1851 607.181L89.1851 607.182ZM89.1851 615.176L89.1852 619.173L94.1852 619.173L94.1851 615.176L89.1851 615.176ZM89.1852 623.17L89.1852 627.167L94.1852 627.167L94.1852 623.17L89.1852 623.17ZM89.1852 631.164L89.1852 635.161L94.1852 635.161L94.1852 631.164L89.1852 631.164ZM89.1853 639.158L89.1853 643.155L94.1853 643.155L94.1853 639.158L89.1853 639.158ZM89.1853 647.153L89.1853 651.15L94.1853 651.15L94.1853 647.153L89.1853 647.153ZM89.1854 655.147L89.1854 659.144L94.1854 659.144L94.1854 655.147L89.1854 655.147ZM89.1854 663.141L89.1854 667.138L94.1854 667.138L94.1854 663.141L89.1854 663.141ZM89.1855 671.135L89.1855 675.132L94.1855 675.132L94.1855 671.135L89.1855 671.135ZM89.1855 679.129L89.1855 683.126L94.1855 683.126L94.1855 679.129L89.1855 679.129ZM89.1856 687.123L89.1856 691.121L94.1856 691.121L94.1856 687.124L89.1856 687.123ZM89.1856 695.118L89.1856 699.115L94.1856 699.115L94.1856 695.118L89.1856 695.118ZM89.1857 703.112L89.1857 707.109L94.1857 707.109L94.1857 703.112L89.1857 703.112ZM89.1857 711.106L89.1857 715.103L94.1857 715.103L94.1857 711.106L89.1857 711.106ZM89.1857 719.1L89.1858 723.097L94.1858 723.097L94.1857 719.1L89.1857 719.1ZM89.1858 727.094L89.1858 731.091L94.1858 731.091L94.1858 727.094L89.1858 727.094ZM89.1858 735.088L89.1859 739.085L94.1859 739.085L94.1858 735.088L89.1858 735.088ZM89.1859 743.082L89.1859 747.08L94.1859 747.08L94.1859 743.082L89.1859 743.082ZM89.1859 751.077L89.186 755.074L94.186 755.074L94.1859 751.077L89.1859 751.077ZM89.186 759.071L89.186 763.068L94.186 763.068L94.186 759.071L89.186 759.071ZM89.186 767.065L89.1861 771.062L94.1861 771.062L94.186 767.065L89.186 767.065ZM89.1861 775.059L89.1861 779.056L94.1861 779.056L94.1861 775.059L89.1861 775.059ZM89.1861 783.053L89.1862 787.05L94.1862 787.05L94.1861 783.053L89.1861 783.053ZM89.1862 791.047L89.1862 795.044L94.1862 795.044L94.1862 791.047L89.1862 791.047ZM89.1862 799.041L89.1862 803.039L94.1862 803.038L94.1862 799.041L89.1862 799.041ZM89.1863 807.036L89.1863 811.033L94.1863 811.033L94.1863 807.036L89.1863 807.036ZM89.1863 815.03L89.1863 819.027L94.1863 819.027L94.1863 815.03L89.1863 815.03ZM89.1864 823.024L89.1864 827.021L94.1864 827.021L94.1864 823.024L89.1864 823.024ZM89.1864 831.018L89.1864 835.015L94.1864 835.015L94.1864 831.018L89.1864 831.018ZM89.1865 839.012L89.1865 843.009L94.1865 843.009L94.1865 839.012L89.1865 839.012ZM89.1865 847.006L89.1865 851.003L94.1865 851.003L94.1865 847.006L89.1865 847.006ZM89.1866 855L89.1866 856.999L94.1866 856.999L94.1866 855L89.1866 855Z" fill="#CC0000"/>
<path d="M690 769.014L665 783.448L665 754.581L690 769.014ZM288.731 770.782C287.755 769.806 287.755 768.223 288.731 767.247L304.641 751.337C305.617 750.36 307.2 750.36 308.177 751.337C309.153 752.313 309.153 753.896 308.177 754.872L294.035 769.014L308.177 783.157C309.153 784.133 309.153 785.716 308.177 786.692C307.2 787.668 305.617 787.668 304.641 786.692L288.731 770.782ZM268.497 769.014L243.497 783.448L243.497 754.581L268.497 769.014ZM172.23 770.782C171.254 769.806 171.254 768.223 172.23 767.247L188.14 751.337C189.117 750.36 190.7 750.36 191.676 751.337C192.652 752.313 192.652 753.896 191.676 754.872L177.534 769.014L191.676 783.157C192.652 784.133 192.652 785.716 191.676 786.692C190.7 787.668 189.117 787.668 188.14 786.692L172.23 770.782ZM684.007 771.514L680.012 771.514L680.012 766.514L684.007 766.514L684.007 771.514ZM676.017 771.514L672.022 771.514L672.022 766.514L676.017 766.514L676.017 771.514ZM668.027 771.514L664.032 771.514L664.032 766.514L668.027 766.514L668.027 771.514ZM660.037 771.514L656.042 771.514L656.042 766.514L660.037 766.514L660.037 771.514ZM652.047 771.514L648.052 771.514L648.052 766.514L652.047 766.514L652.047 771.514ZM644.057 771.514L640.062 771.514L640.062 766.514L644.057 766.514L644.057 771.514ZM636.067 771.514L632.072 771.514L632.072 766.514L636.067 766.514L636.067 771.514ZM628.077 771.514L624.082 771.514L624.082 766.514L628.077 766.514L628.077 771.514ZM620.087 771.514L616.092 771.514L616.092 766.514L620.087 766.514L620.087 771.514ZM612.097 771.514L608.102 771.514L608.102 766.514L612.097 766.514L612.097 771.514ZM604.107 771.514L600.112 771.514L600.112 766.514L604.107 766.514L604.107 771.514ZM596.117 771.514L592.122 771.514L592.122 766.514L596.117 766.514L596.117 771.514ZM588.127 771.514L584.132 771.514L584.132 766.514L588.127 766.514L588.127 771.514ZM580.137 771.514L576.142 771.514L576.142 766.514L580.137 766.514L580.137 771.514ZM572.147 771.514L568.152 771.514L568.152 766.514L572.147 766.514L572.147 771.514ZM564.157 771.514L560.162 771.514L560.162 766.514L564.157 766.514L564.157 771.514ZM556.167 771.514L552.172 771.514L552.172 766.514L556.167 766.514L556.167 771.514ZM548.177 771.514L544.182 771.514L544.182 766.514L548.177 766.514L548.177 771.514ZM540.187 771.514L536.192 771.514L536.192 766.514L540.187 766.514L540.187 771.514ZM532.197 771.514L528.202 771.514L528.202 766.514L532.197 766.514L532.197 771.514ZM524.207 771.514L520.212 771.514L520.212 766.514L524.207 766.514L524.207 771.514ZM516.217 771.514L512.222 771.514L512.222 766.514L516.217 766.514L516.217 771.514ZM508.227 771.514L504.232 771.514L504.232 766.514L508.227 766.514L508.227 771.514ZM500.237 771.514L496.242 771.514L496.242 766.514L500.237 766.514L500.237 771.514ZM492.247 771.514L488.252 771.514L488.252 766.514L492.247 766.514L492.247 771.514ZM484.257 771.514L480.262 771.514L480.262 766.514L484.257 766.514L484.257 771.514ZM476.267 771.514L472.272 771.514L472.272 766.514L476.267 766.514L476.267 771.514ZM468.277 771.514L464.282 771.514L464.282 766.514L468.277 766.514L468.277 771.514ZM460.287 771.514L456.292 771.514L456.292 766.514L460.287 766.514L460.287 771.514ZM452.297 771.514L448.302 771.514L448.302 766.514L452.297 766.514L452.297 771.514ZM444.307 771.514L440.312 771.514L440.312 766.514L444.307 766.514L444.307 771.514ZM436.317 771.514L432.322 771.514L432.322 766.514L436.317 766.514L436.317 771.514ZM428.327 771.514L424.332 771.514L424.332 766.514L428.327 766.514L428.327 771.514ZM420.337 771.514L416.342 771.514L416.342 766.514L420.337 766.514L420.337 771.514ZM412.347 771.514L408.352 771.514L408.352 766.514L412.347 766.514L412.347 771.514ZM404.357 771.514L400.362 771.514L400.362 766.514L404.357 766.514L404.357 771.514ZM396.367 771.514L392.372 771.514L392.372 766.514L396.367 766.514L396.367 771.514ZM388.377 771.514L384.382 771.514L384.382 766.514L388.377 766.514L388.377 771.514ZM380.387 771.514L376.392 771.514L376.392 766.514L380.387 766.514L380.387 771.514ZM372.397 771.514L368.402 771.514L368.402 766.514L372.397 766.514L372.397 771.514ZM364.407 771.514L360.412 771.514L360.412 766.514L364.407 766.514L364.407 771.514ZM356.417 771.514L352.422 771.514L352.422 766.514L356.417 766.514L356.417 771.514ZM348.427 771.514L344.432 771.514L344.432 766.514L348.427 766.514L348.427 771.514ZM340.437 771.514L336.442 771.514L336.442 766.514L340.437 766.514L340.437 771.514ZM332.447 771.514L328.452 771.514L328.452 766.514L332.447 766.514L332.447 771.514ZM324.457 771.514L320.462 771.514L320.462 766.514L324.457 766.514L324.457 771.514ZM316.467 771.514L312.472 771.514L312.472 766.514L316.467 766.514L316.467 771.514ZM308.477 771.514L304.482 771.514L304.482 766.514L308.477 766.514L308.477 771.514ZM300.487 771.514L296.492 771.514L296.492 766.514L300.487 766.514L300.487 771.514ZM292.497 771.514L290.499 771.514L290.499 766.514L292.497 766.514L292.497 771.514ZM262.591 771.514L258.653 771.514L258.653 766.514L262.591 766.514L262.591 771.514ZM254.716 771.514L250.778 771.514L250.778 766.514L254.716 766.514L254.716 771.514ZM246.841 771.514L242.904 771.514L242.904 766.514L246.841 766.514L246.841 771.514ZM238.966 771.514L235.029 771.514L235.029 766.514L238.966 766.514L238.966 771.514ZM231.091 771.514L227.154 771.514L227.154 766.514L231.091 766.514L231.091 771.514ZM223.216 771.514L219.279 771.514L219.279 766.514L223.216 766.514L223.216 771.514ZM215.341 771.514L211.404 771.514L211.404 766.514L215.341 766.514L215.341 771.514ZM207.467 771.514L203.529 771.514L203.529 766.514L207.467 766.514L207.467 771.514ZM199.592 771.514L195.654 771.514L195.654 766.514L199.592 766.514L199.592 771.514ZM191.717 771.514L187.779 771.514L187.779 766.514L191.717 766.514L191.717 771.514ZM183.842 771.514L179.904 771.514L179.904 766.514L183.842 766.514L183.842 771.514ZM175.967 771.514L173.998 771.514L173.998 766.514L175.967 766.514L175.967 771.514ZM690 769.014L665 783.448L665 754.581L690 769.014ZM288.731 770.782C287.755 769.806 287.755 768.223 288.731 767.247L304.641 751.337C305.617 750.36 307.2 750.36 308.177 751.337C309.153 752.313 309.153 753.896 308.177 754.872L294.035 769.014L308.177 783.157C309.153 784.133 309.153 785.716 308.177 786.692C307.2 787.668 305.617 787.668 304.641 786.692L288.731 770.782ZM268.497 769.014L243.497 783.448L243.497 754.581L268.497 769.014ZM172.23 770.782C171.254 769.806 171.254 768.223 172.23 767.247L188.14 751.337C189.117 750.36 190.7 750.36 191.676 751.337C192.652 752.313 192.652 753.896 191.676 754.872L177.534 769.014L191.676 783.157C192.652 784.133 192.652 785.716 191.676 786.692C190.7 787.668 189.117 787.668 188.14 786.692L172.23 770.782ZM684.007 771.514L680.012 771.514L680.012 766.514L684.007 766.514L684.007 771.514ZM676.017 771.514L672.022 771.514L672.022 766.514L676.017 766.514L676.017 771.514ZM668.027 771.514L664.032 771.514L664.032 766.514L668.027 766.514L668.027 771.514ZM660.037 771.514L656.042 771.514L656.042 766.514L660.037 766.514L660.037 771.514ZM652.047 771.514L648.052 771.514L648.052 766.514L652.047 766.514L652.047 771.514ZM644.057 771.514L640.062 771.514L640.062 766.514L644.057 766.514L644.057 771.514ZM636.067 771.514L632.072 771.514L632.072 766.514L636.067 766.514L636.067 771.514ZM628.077 771.514L624.082 771.514L624.082 766.514L628.077 766.514L628.077 771.514ZM620.087 771.514L616.092 771.514L616.092 766.514L620.087 766.514L620.087 771.514ZM612.097 771.514L608.102 771.514L608.102 766.514L612.097 766.514L612.097 771.514ZM604.107 771.514L600.112 771.514L600.112 766.514L604.107 766.514L604.107 771.514ZM596.117 771.514L592.122 771.514L592.122 766.514L596.117 766.514L596.117 771.514ZM588.127 771.514L584.132 771.514L584.132 766.514L588.127 766.514L588.127 771.514ZM580.137 771.514L576.142 771.514L576.142 766.514L580.137 766.514L580.137 771.514ZM572.147 771.514L568.152 771.514L568.152 766.514L572.147 766.514L572.147 771.514ZM564.157 771.514L560.162 771.514L560.162 766.514L564.157 766.514L564.157 771.514ZM556.167 771.514L552.172 771.514L552.172 766.514L556.167 766.514L556.167 771.514ZM548.177 771.514L544.182 771.514L544.182 766.514L548.177 766.514L548.177 771.514ZM540.187 771.514L536.192 771.514L536.192 766.514L540.187 766.514L540.187 771.514ZM532.197 771.514L528.202 771.514L528.202 766.514L532.197 766.514L532.197 771.514ZM524.207 771.514L520.212 771.514L520.212 766.514L524.207 766.514L524.207 771.514ZM516.217 771.514L512.222 771.514L512.222 766.514L516.217 766.514L516.217 771.514ZM508.227 771.514L504.232 771.514L504.232 766.514L508.227 766.514L508.227 771.514ZM500.237 771.514L496.242 771.514L496.242 766.514L500.237 766.514L500.237 771.514ZM492.247 771.514L488.252 771.514L488.252 766.514L492.247 766.514L492.247 771.514ZM484.257 771.514L480.262 771.514L480.262 766.514L484.257 766.514L484.257 771.514ZM476.267 771.514L472.272 771.514L472.272 766.514L476.267 766.514L476.267 771.514ZM468.277 771.514L464.282 771.514L464.282 766.514L468.277 766.514L468.277 771.514ZM460.287 771.514L456.292 771.514L456.292 766.514L460.287 766.514L460.287 771.514ZM452.297 771.514L448.302 771.514L448.302 766.514L452.297 766.514L452.297 771.514ZM444.307 771.514L440.312 771.514L440.312 766.514L444.307 766.514L444.307 771.514ZM436.317 771.514L432.322 771.514L432.322 766.514L436.317 766.514L436.317 771.514ZM428.327 771.514L424.332 771.514L424.332 766.514L428.327 766.514L428.327 771.514ZM420.337 771.514L416.342 771.514L416.342 766.514L420.337 766.514L420.337 771.514ZM412.347 771.514L408.352 771.514L408.352 766.514L412.347 766.514L412.347 771.514ZM404.357 771.514L400.362 771.514L400.362 766.514L404.357 766.514L404.357 771.514ZM396.367 771.514L392.372 771.514L392.372 766.514L396.367 766.514L396.367 771.514ZM388.377 771.514L384.382 771.514L384.382 766.514L388.377 766.514L388.377 771.514ZM380.387 771.514L376.392 771.514L376.392 766.514L380.387 766.514L380.387 771.514ZM372.397 771.514L368.402 771.514L368.402 766.514L372.397 766.514L372.397 771.514ZM364.407 771.514L360.412 771.514L360.412 766.514L364.407 766.514L364.407 771.514ZM356.417 771.514L352.422 771.514L352.422 766.514L356.417 766.514L356.417 771.514ZM348.427 771.514L344.432 771.514L344.432 766.514L348.427 766.514L348.427 771.514ZM340.437 771.514L336.442 771.514L336.442 766.514L340.437 766.514L340.437 771.514ZM332.447 771.514L328.452 771.514L328.452 766.514L332.447 766.514L332.447 771.514ZM324.457 771.514L320.462 771.514L320.462 766.514L324.457 766.514L324.457 771.514ZM316.467 771.514L312.472 771.514L312.472 766.514L316.467 766.514L316.467 771.514ZM308.477 771.514L304.482 771.514L304.482 766.514L308.477 766.514L308.477 771.514ZM300.487 771.514L296.492 771.514L296.492 766.514L300.487 766.514L300.487 771.514ZM292.497 771.514L290.499 771.514L290.499 766.514L292.497 766.514L292.497 771.514ZM262.591 771.514L258.653 771.514L258.653 766.514L262.591 766.514L262.591 771.514ZM254.716 771.514L250.778 771.514L250.778 766.514L254.716 766.514L254.716 771.514ZM246.841 771.514L242.904 771.514L242.904 766.514L246.841 766.514L246.841 771.514ZM238.966 771.514L235.029 771.514L235.029 766.514L238.966 766.514L238.966 771.514ZM231.091 771.514L227.154 771.514L227.154 766.514L231.091 766.514L231.091 771.514ZM223.216 771.514L219.279 771.514L219.279 766.514L223.216 766.514L223.216 771.514ZM215.341 771.514L211.404 771.514L211.404 766.514L215.341 766.514L215.341 771.514ZM207.467 771.514L203.529 771.514L203.529 766.514L207.467 766.514L207.467 771.514ZM199.592 771.514L195.654 771.514L195.654 766.514L199.592 766.514L199.592 771.514ZM191.717 771.514L187.779 771.514L187.779 766.514L191.717 766.514L191.717 771.514ZM183.842 771.514L179.904 771.514L179.904 766.514L183.842 766.514L183.842 771.514ZM175.967 771.514L173.998 771.514L173.998 766.514L175.967 766.514L175.967 771.514Z" fill="#CC0000"/>
</svg>
