<svg width="136" height="170" viewBox="0 0 136 170" fill="none" xmlns="http://www.w3.org/2000/svg">
<path fill-rule="evenodd" clip-rule="evenodd" d="M3.42016 74.3101H132.12V135.47C132.12 144.02 125.12 151.02 116.57 151.02H18.9602C10.4102 151.02 3.41016 144.03 3.41016 135.47V74.3101H3.42016Z" fill="#AC1325"/>
<path d="M49.8606 -0.00976562H20.6406V26.6502H49.8606V-0.00976562Z" fill="#8D0A1D"/>
<path d="M27.8994 13.1104H26.3594V19.2604H27.8994V13.1104Z" fill="#FF5B7B"/>
<path d="M44.1298 15.6504H42.5898V21.8004H44.1298V15.6504Z" fill="#FF5B7B"/>
<path d="M27.8994 5.42041H26.3594V11.5704H27.8994V5.42041Z" fill="#FF5B7B"/>
<path d="M44.1396 7.96045H42.5996V14.1105H44.1396V7.96045Z" fill="#FF5B7B"/>
<path d="M27.8994 -0.00976562H26.3594V3.88023H27.8994V-0.00976562Z" fill="#FF5B7B"/>
<path d="M44.1396 0.280273H42.5996V6.43027H44.1396V0.280273Z" fill="#FF5B7B"/>
<path d="M27.8994 20.79H26.3594V26.65H27.8994V20.79Z" fill="#FF5B7B"/>
<path d="M44.1396 23.3403H42.5996V26.6503H44.1396V23.3403Z" fill="#FF5B7B"/>
<path d="M114.89 -0.00976562H85.6699V26.6502H114.89V-0.00976562Z" fill="#8D0A1D"/>
<path d="M109.171 12.02H107.631V18.17H109.171V12.02Z" fill="#FF5B7B"/>
<path d="M92.9306 14.5601H91.3906V20.7101H92.9306V14.5601Z" fill="#FF5B7B"/>
<path d="M109.171 4.33008H107.631V10.4801H109.171V4.33008Z" fill="#FF5B7B"/>
<path d="M92.9306 6.88037H91.3906V13.0204H92.9306V6.88037Z" fill="#FF5B7B"/>
<path d="M109.171 -0.00976562H107.631V2.79024H109.171V-0.00976562Z" fill="#FF5B7B"/>
<path d="M92.9306 -0.00976562H91.3906V5.34023H92.9306V-0.00976562Z" fill="#FF5B7B"/>
<path d="M109.171 19.7002H107.631V25.8502H109.171V19.7002Z" fill="#FF5B7B"/>
<path d="M92.9306 22.25H91.3906V26.65H92.9306V22.25Z" fill="#FF5B7B"/>
<path fill-rule="evenodd" clip-rule="evenodd" d="M0 20.0503H135.53V81.2103C135.53 89.7603 128.53 96.7603 119.98 96.7603H15.55C7 96.7603 0 89.7603 0 81.2103V20.0503Z" fill="#CD1C37"/>
<path fill-rule="evenodd" clip-rule="evenodd" d="M9.31047 86.6102C7.78047 84.7502 7.38047 83.0702 7.27047 81.4902L5.73047 81.5402C5.82047 83.7402 6.57047 85.8102 8.15047 87.6202L9.31047 86.6102Z" fill="#FF5B7B"/>
<path fill-rule="evenodd" clip-rule="evenodd" d="M124.09 88.3802C126.24 87.1402 126.99 85.6902 127.7 84.2002L129.13 84.7602C128.3 86.8102 126.89 88.4002 124.84 89.7202L124.09 88.3802Z" fill="#FF5B7B"/>
<path d="M7.2607 27.7104H5.7207V33.8605H7.2607V27.7104Z" fill="#FF5B7B"/>
<path d="M7.2607 35.4004H5.7207V41.5504H7.2607V35.4004Z" fill="#FF5B7B"/>
<path d="M7.2607 43.0801H5.7207V49.2301H7.2607V43.0801Z" fill="#FF5B7B"/>
<path d="M7.2607 50.7705H5.7207V56.9205H7.2607V50.7705Z" fill="#FF5B7B"/>
<path d="M7.2607 58.4604H5.7207V64.6104H7.2607V58.4604Z" fill="#FF5B7B"/>
<path d="M7.2607 66.1401H5.7207V72.2901H7.2607V66.1401Z" fill="#FF5B7B"/>
<path d="M7.2607 73.8301H5.7207V79.9801H7.2607V73.8301Z" fill="#FF5B7B"/>
<path fill-rule="evenodd" clip-rule="evenodd" d="M15.5316 89.4603C13.1116 89.4103 11.7516 88.5603 10.3216 87.5903L9.35156 88.7903C11.0016 90.1803 13.1416 91.0103 15.5416 91.0003L15.5316 89.4603Z" fill="#FF5B7B"/>
<path d="M53.941 89.4604H47.791V91.0004H53.941V89.4604Z" fill="#FF5B7B"/>
<path d="M61.6305 89.4604H55.4805V91.0004H61.6305V89.4604Z" fill="#FF5B7B"/>
<path d="M69.3102 89.4604H63.1602V91.0004H69.3102V89.4604Z" fill="#FF5B7B"/>
<path d="M77.0016 89.4604H70.8516V91.0004H77.0016V89.4604Z" fill="#FF5B7B"/>
<path d="M84.691 89.4604H78.541V91.0004H84.691V89.4604Z" fill="#FF5B7B"/>
<path fill-rule="evenodd" clip-rule="evenodd" d="M123.33 90.4102C123.15 89.9302 122.98 89.4502 122.8 88.9702C120.87 89.6902 119.29 89.4102 116.99 89.4602C116.99 89.9702 116.99 90.4902 116.99 91.0002C119.58 91.0102 121.54 91.0802 123.33 90.4102Z" fill="#FF5B7B"/>
<path fill-rule="evenodd" clip-rule="evenodd" d="M128.102 82.8504C128.602 82.9604 129.102 83.0704 129.612 83.1804C129.752 82.5704 129.812 81.9404 129.822 81.2804V76.8804H128.282C128.282 78.3304 128.282 79.7804 128.282 81.2304C128.272 81.7904 128.212 82.3204 128.102 82.8504Z" fill="#FF5B7B"/>
<path d="M129.811 69.1904H128.271V75.3404H129.811V69.1904Z" fill="#FF5B7B"/>
<path d="M129.811 61.5103H128.271V67.6503H129.811V61.5103Z" fill="#FF5B7B"/>
<path d="M129.811 53.8203H128.271V59.9703H129.811V53.8203Z" fill="#FF5B7B"/>
<path d="M129.811 46.1304H128.271V52.2804H129.811V46.1304Z" fill="#FF5B7B"/>
<path d="M129.811 38.4404H128.271V44.5904H129.811V38.4404Z" fill="#FF5B7B"/>
<path d="M129.811 30.7505H128.271V36.9005H129.811V30.7505Z" fill="#FF5B7B"/>
<path d="M129.811 23.0703H128.271V29.2203H129.811V23.0703Z" fill="#FF5B7B"/>
<path d="M23.1908 89.4702H17.0508V91.0102H23.1908V89.4702Z" fill="#FF5B7B"/>
<path d="M30.8705 89.4702H24.7305V91.0102H30.8705V89.4702Z" fill="#FF5B7B"/>
<path d="M38.5699 89.4702H32.4199V91.0102H38.5699V89.4702Z" fill="#FF5B7B"/>
<path d="M92.3707 89.4702H86.2207V91.0102H92.3707V89.4702Z" fill="#FF5B7B"/>
<path d="M100.06 89.4702H93.9102V91.0102H100.06V89.4702Z" fill="#FF5B7B"/>
<path d="M107.752 89.4702H101.602V91.0102H107.752V89.4702Z" fill="#FF5B7B"/>
<path d="M115.441 89.4702H109.291V91.0102H115.441V89.4702Z" fill="#FF5B7B"/>
<path d="M46.2513 89.4702H40.1113V91.0102H46.2513V89.4702Z" fill="#FF5B7B"/>
<path d="M7.2607 20.0503H5.7207V26.1803H7.2607V20.0503Z" fill="#FF5B7B"/>
<path d="M129.811 20.0503H128.271V21.5403H129.811V20.0503Z" fill="#FF5B7B"/>
<path fill-rule="evenodd" clip-rule="evenodd" d="M24.0605 70.3003H40.0805V161.85C40.0805 166.26 36.4705 169.86 32.0705 169.86C27.6705 169.86 24.0605 166.26 24.0605 161.85V70.3003Z" fill="#8D0A1D"/>
<path fill-rule="evenodd" clip-rule="evenodd" d="M95.4492 70.3003H111.469V161.85C111.469 166.26 107.869 169.86 103.459 169.86C99.0592 169.86 95.4492 166.26 95.4492 161.85V70.3003Z" fill="#8D0A1D"/>
<path fill-rule="evenodd" clip-rule="evenodd" d="M32.0704 113.44C33.1804 113.44 34.0804 112.54 34.0804 111.43C34.0804 110.32 33.1804 109.42 32.0704 109.42C30.9704 109.42 30.0704 110.32 30.0704 111.43C30.0604 112.54 30.9604 113.44 32.0704 113.44Z" fill="#74051A"/>
<path fill-rule="evenodd" clip-rule="evenodd" d="M32.0704 101.93C33.1804 101.93 34.0804 101.03 34.0804 99.9202C34.0804 98.8102 33.1804 97.9102 32.0704 97.9102C30.9704 97.9102 30.0704 98.8102 30.0704 99.9202C30.0604 101.02 30.9604 101.93 32.0704 101.93Z" fill="#74051A"/>
<path fill-rule="evenodd" clip-rule="evenodd" d="M32.0704 90.4104C33.1804 90.4104 34.0804 89.5104 34.0804 88.4104C34.0804 87.3004 33.1804 86.4004 32.0704 86.4004C30.9704 86.4004 30.0704 87.3004 30.0704 88.4104C30.0604 89.5104 30.9604 90.4104 32.0704 90.4104Z" fill="#74051A"/>
<path fill-rule="evenodd" clip-rule="evenodd" d="M32.0704 136.47C33.1804 136.47 34.0804 135.57 34.0804 134.47C34.0804 133.36 33.1804 132.46 32.0704 132.46C30.9704 132.46 30.0704 133.36 30.0704 134.47C30.0604 135.57 30.9604 136.47 32.0704 136.47Z" fill="#74051A"/>
<path fill-rule="evenodd" clip-rule="evenodd" d="M32.0704 124.95C33.1804 124.95 34.0804 124.05 34.0804 122.94C34.0804 121.84 33.1804 120.94 32.0704 120.94C30.9704 120.94 30.0704 121.84 30.0704 122.94C30.0604 124.05 30.9604 124.95 32.0704 124.95Z" fill="#74051A"/>
<path fill-rule="evenodd" clip-rule="evenodd" d="M103.459 113.44C104.559 113.44 105.469 112.54 105.469 111.43C105.469 110.32 104.569 109.42 103.459 109.42C102.349 109.42 101.449 110.32 101.449 111.43C101.459 112.54 102.359 113.44 103.459 113.44Z" fill="#74051A"/>
<path d="M103.459 101.93C104.569 101.93 105.469 101.03 105.469 99.9202C105.469 98.8101 104.569 97.9102 103.459 97.9102C102.349 97.9102 101.449 98.8101 101.449 99.9202C101.449 101.03 102.349 101.93 103.459 101.93Z" fill="#74051A"/>
<path fill-rule="evenodd" clip-rule="evenodd" d="M103.459 90.4104C104.559 90.4104 105.469 89.5104 105.469 88.4104C105.469 87.3004 104.569 86.4004 103.459 86.4004C102.349 86.4004 101.449 87.3004 101.449 88.4104C101.459 89.5104 102.359 90.4104 103.459 90.4104Z" fill="#74051A"/>
<path fill-rule="evenodd" clip-rule="evenodd" d="M103.459 136.47C104.559 136.47 105.469 135.57 105.469 134.47C105.469 133.36 104.569 132.46 103.459 132.46C102.349 132.46 101.449 133.36 101.449 134.47C101.459 135.57 102.359 136.47 103.459 136.47Z" fill="#74051A"/>
<path fill-rule="evenodd" clip-rule="evenodd" d="M103.459 124.95C104.559 124.95 105.469 124.05 105.469 122.94C105.469 121.84 104.569 120.94 103.459 120.94C102.349 120.94 101.449 121.84 101.449 122.94C101.459 124.05 102.359 124.95 103.459 124.95Z" fill="#74051A"/>
<path fill-rule="evenodd" clip-rule="evenodd" d="M95.3407 83.1504H111.591C112.431 83.1504 113.121 83.8404 113.121 84.6804V101.67C113.121 102.51 112.431 103.2 111.591 103.2H95.3407C94.5007 103.2 93.8107 102.51 93.8107 101.67V84.6804C93.8007 83.8404 94.4907 83.1504 95.3407 83.1504ZM96.2407 85.5904V100.77H110.691V85.5904H96.2407Z" fill="#F79516"/>
<path fill-rule="evenodd" clip-rule="evenodd" d="M23.9402 83.1504H40.1902C41.0302 83.1504 41.7202 83.8404 41.7202 84.6804V101.67C41.7202 102.51 41.0302 103.2 40.1902 103.2H23.9402C23.1002 103.2 22.4102 102.51 22.4102 101.67V84.6804C22.4102 83.8404 23.1002 83.1504 23.9402 83.1504ZM24.8402 85.5904V100.77H39.2902V85.5904H24.8402Z" fill="#F79516"/>
<path fill-rule="evenodd" clip-rule="evenodd" d="M33.2794 89.9904C32.9394 90.2504 32.5194 90.4104 32.0694 90.4104C31.6094 90.4104 31.1994 90.2504 30.8594 89.9904V85.6504C30.8594 84.9804 31.4094 84.4404 32.0694 84.4404C32.7394 84.4404 33.2794 84.9804 33.2794 85.6504V89.9904Z" fill="#FCB63A"/>
<path fill-rule="evenodd" clip-rule="evenodd" d="M104.68 89.9904C104.34 90.2504 103.92 90.4104 103.47 90.4104C103.01 90.4104 102.59 90.2504 102.26 89.9904V85.6504C102.26 84.9804 102.8 84.4404 103.47 84.4404C104.14 84.4404 104.68 84.9804 104.68 85.6504V89.9904Z" fill="#FCB63A"/>
</svg>
