<svg width="98" height="18" viewBox="0 0 98 18" fill="none" xmlns="http://www.w3.org/2000/svg">
<path d="M4.99219 17L0.414063 1H4.10938L6.75781 12.1172H6.89063L9.8125 1H12.9766L15.8906 12.1406H16.0313L18.6797 1H22.375L17.7969 17H14.5L11.4531 6.53906H11.3281L8.28906 17H4.99219ZM27.5684 1V17H24.1855V1H27.5684ZM29.7422 3.78906V1H42.8828V3.78906H37.9844V17H34.6406V3.78906H29.7422ZM45.0469 17V1H48.4297V7.60156H55.2969V1H58.6719V17H55.2969V10.3906H48.4297V17H45.0469ZM77.1621 6.17188C77.0527 5.79167 76.8991 5.45573 76.7012 5.16406C76.5033 4.86719 76.2611 4.61719 75.9746 4.41406C75.6934 4.20573 75.3704 4.04687 75.0059 3.9375C74.6465 3.82813 74.248 3.77344 73.8105 3.77344C72.9928 3.77344 72.2741 3.97656 71.6543 4.38281C71.0397 4.78906 70.5605 5.38021 70.2168 6.15625C69.873 6.92708 69.7012 7.86979 69.7012 8.98437C69.7012 10.099 69.8704 11.0469 70.209 11.8281C70.5475 12.6094 71.0267 13.2057 71.6465 13.6172C72.2663 14.0234 72.998 14.2266 73.8418 14.2266C74.6074 14.2266 75.2611 14.0911 75.8027 13.8203C76.3496 13.5443 76.7663 13.1562 77.0527 12.6562C77.3444 12.1562 77.4902 11.5651 77.4902 10.8828L78.1777 10.9844H74.0527V8.4375H80.748V10.4531C80.748 11.8594 80.4512 13.0677 79.8574 14.0781C79.2637 15.0833 78.446 15.8594 77.4043 16.4062C76.3626 16.9479 75.1699 17.2187 73.8262 17.2187C72.3262 17.2187 71.0085 16.888 69.873 16.2266C68.7376 15.5599 67.8522 14.6146 67.2168 13.3906C66.5866 12.1615 66.2715 10.7031 66.2715 9.01562C66.2715 7.71875 66.459 6.5625 66.834 5.54687C67.2142 4.52604 67.7454 3.66146 68.4277 2.95313C69.11 2.24479 69.9043 1.70573 70.8105 1.33594C71.7168 0.966145 72.6986 0.781249 73.7559 0.781249C74.6621 0.781249 75.5059 0.914062 76.2871 1.17969C77.0684 1.4401 77.7611 1.8099 78.3652 2.28906C78.9746 2.76823 79.472 3.33854 79.8574 4C80.2428 4.65625 80.4902 5.38021 80.5996 6.17188H77.1621ZM97.9922 9C97.9922 10.7448 97.6615 12.2292 97 13.4531C96.3438 14.6771 95.4479 15.612 94.3125 16.2578C93.1823 16.8984 91.9115 17.2187 90.5 17.2187C89.0781 17.2187 87.8021 16.8958 86.6719 16.25C85.5417 15.6042 84.6484 14.6693 83.9922 13.4453C83.3359 12.2214 83.0078 10.7396 83.0078 9C83.0078 7.25521 83.3359 5.77083 83.9922 4.54688C84.6484 3.32292 85.5417 2.39062 86.6719 1.75C87.8021 1.10417 89.0781 0.781249 90.5 0.781249C91.9115 0.781249 93.1823 1.10417 94.3125 1.75C95.4479 2.39062 96.3438 3.32292 97 4.54688C97.6615 5.77083 97.9922 7.25521 97.9922 9ZM94.5625 9C94.5625 7.86979 94.3932 6.91667 94.0547 6.14062C93.7214 5.36458 93.25 4.77604 92.6406 4.375C92.0313 3.97396 91.3177 3.77344 90.5 3.77344C89.6823 3.77344 88.9688 3.97396 88.3594 4.375C87.75 4.77604 87.276 5.36458 86.9375 6.14062C86.6042 6.91667 86.4375 7.86979 86.4375 9C86.4375 10.1302 86.6042 11.0833 86.9375 11.8594C87.276 12.6354 87.75 13.224 88.3594 13.625C88.9688 14.026 89.6823 14.2266 90.5 14.2266C91.3177 14.2266 92.0313 14.026 92.6406 13.625C93.25 13.224 93.7214 12.6354 94.0547 11.8594C94.3932 11.0833 94.5625 10.1302 94.5625 9Z" fill="white"/>
</svg>
